{
  "header": {
    "PPQ": 96,
    "timeSignature": [
      4,
      4
    ],
    "bpm": 89.9999550000225,
    "name": "Alan Walker - Faded"
  },
  "tempo": [
    {
      "absoluteTime": 0,
      "seconds": 0,
      "bpm": 89.9999550000225
    },
    {
      "absoluteTime": 0,
      "seconds": 0,
      "bpm": 89.9999550000225
    },
    {
      "absoluteTime": 0,
      "seconds": 0,
      "bpm": 89.9999550000225
    }
  ],
  "timeSignature": [
    {
      "absoluteTime": 0,
      "seconds": 0,
      "numerator": 4,
      "denominator": 2,
      "click": 24,
      "notesQ": 8
    }
  ],
  "startTime": 0,
  "duration": 75.00003749999938,
  "tracks": [
    {
      "startTime": 0,
      "duration": 0,
      "length": 0,
      "notes": [],
      "controlChanges": {},
      "id": 0
    },
    {
      "startTime": 0,
      "duration": 0,
      "length": 0,
      "notes": [],
      "controlChanges": {},
      "id": 1
    },
    {
      "startTime": 0,
      "duration": 75.00003749999938,
      "length": 173,
      "notes": [
        {
          "name": "F#4",
          "midi": 66,
          "time": 0,
          "velocity": 0.7874015748031497,
          "duration": 0.3333335
        },
        {
          "name": "F#4",
          "midi": 66,
          "time": 0.666667,
          "velocity": 0.7874015748031497,
          "duration": 0.33333350000000006
        },
        {
          "name": "F#4",
          "midi": 66,
          "time": 1.333334,
          "velocity": 0.7874015748031497,
          "duration": 0.33333349999999995
        },
        {
          "name": "A#4",
          "midi": 70,
          "time": 2.000001,
          "velocity": 0.7874015748031497,
          "duration": 0.33333350000000017
        },
        {
          "name": "D#5",
          "midi": 75,
          "time": 2.6666680000000005,
          "velocity": 0.7874015748031497,
          "duration": 0.33333350000000017
        },
        {
          "name": "D#5",
          "midi": 75,
          "time": 3.333335000000001,
          "velocity": 0.7874015748031497,
          "duration": 0.33333350000000017
        },
        {
          "name": "D#5",
          "midi": 75,
          "time": 4.000002000000001,
          "velocity": 0.7874015748031497,
          "duration": 0.33333350000000017
        },
        {
          "name": "C#5",
          "midi": 73,
          "time": 4.6666690000000015,
          "velocity": 0.7874015748031497,
          "duration": 0.33333350000000017
        },
        {
          "name": "A#4",
          "midi": 70,
          "time": 5.333336000000002,
          "velocity": 0.7874015748031497,
          "duration": 0.33333350000000017
        },
        {
          "name": "A#4",
          "midi": 70,
          "time": 6.000003000000002,
          "velocity": 0.7874015748031497,
          "duration": 0.33333350000000017
        },
        {
          "name": "A#4",
          "midi": 70,
          "time": 6.6666700000000025,
          "velocity": 0.7874015748031497,
          "duration": 0.33333350000000017
        },
        {
          "name": "A#4",
          "midi": 70,
          "time": 7.333337000000003,
          "velocity": 0.7874015748031497,
          "duration": 0.33333350000000017
        },
        {
          "name": "F4",
          "midi": 65,
          "time": 8.000004000000002,
          "velocity": 0.7874015748031497,
          "duration": 0.33333350000000017
        },
        {
          "name": "F4",
          "midi": 65,
          "time": 8.666671000000003,
          "velocity": 0.7874015748031497,
          "duration": 0.33333350000000017
        },
        {
          "name": "F4",
          "midi": 65,
          "time": 9.333338000000003,
          "velocity": 0.7874015748031497,
          "duration": 0.33333350000000017
        },
        {
          "name": "D#4",
          "midi": 63,
          "time": 10.000005000000003,
          "velocity": 0.7874015748031497,
          "duration": 0.33333350000000017
        },
        {
          "name": "F#4",
          "midi": 66,
          "time": 10.666672000000004,
          "velocity": 0.7874015748031497,
          "duration": 0.33333350000000017
        },
        {
          "name": "F#4",
          "midi": 66,
          "time": 11.333339000000004,
          "velocity": 0.7874015748031497,
          "duration": 0.33333350000000017
        },
        {
          "name": "F#4",
          "midi": 66,
          "time": 12.000006000000004,
          "velocity": 0.7874015748031497,
          "duration": 0.33333350000000017
        },
        {
          "name": "A#4",
          "midi": 70,
          "time": 12.666673000000005,
          "velocity": 0.7874015748031497,
          "duration": 0.33333350000000017
        },
        {
          "name": "D#5",
          "midi": 75,
          "time": 13.333340000000005,
          "velocity": 0.7874015748031497,
          "duration": 0.33333350000000017
        },
        {
          "name": "D#5",
          "midi": 75,
          "time": 14.000007000000005,
          "velocity": 0.7874015748031497,
          "duration": 0.33333350000000017
        },
        {
          "name": "D#5",
          "midi": 75,
          "time": 14.666674000000006,
          "velocity": 0.7874015748031497,
          "duration": 0.33333350000000017
        },
        {
          "name": "C#5",
          "midi": 73,
          "time": 15.333341000000006,
          "velocity": 0.7874015748031497,
          "duration": 0.33333350000000017
        },
        {
          "name": "A#4",
          "midi": 70,
          "time": 16.000008000000005,
          "velocity": 0.7874015748031497,
          "duration": 0.3333334999999984
        },
        {
          "name": "A#4",
          "midi": 70,
          "time": 16.666675,
          "velocity": 0.7874015748031497,
          "duration": 0.3333334999999984
        },
        {
          "name": "A#4",
          "midi": 70,
          "time": 17.333342,
          "velocity": 0.7874015748031497,
          "duration": 0.3333334999999984
        },
        {
          "name": "A#4",
          "midi": 70,
          "time": 18.000008999999995,
          "velocity": 0.7874015748031497,
          "duration": 0.3333334999999984
        },
        {
          "name": "F4",
          "midi": 65,
          "time": 18.666675999999992,
          "velocity": 0.7874015748031497,
          "duration": 0.3333334999999984
        },
        {
          "name": "F4",
          "midi": 65,
          "time": 19.33334299999999,
          "velocity": 0.7874015748031497,
          "duration": 0.3333334999999984
        },
        {
          "name": "F4",
          "midi": 65,
          "time": 20.000009999999985,
          "velocity": 0.7874015748031497,
          "duration": 0.3333334999999984
        },
        {
          "name": "D#4",
          "midi": 63,
          "time": 20.666676999999982,
          "velocity": 0.7874015748031497,
          "duration": 0.3333334999999984
        },
        {
          "name": "F#4",
          "midi": 66,
          "time": 21.33334399999998,
          "velocity": 0.7874015748031497,
          "duration": 0.3333334999999984
        },
        {
          "name": "F#4",
          "midi": 66,
          "time": 22.000010999999976,
          "velocity": 0.7874015748031497,
          "duration": 0.3333334999999984
        },
        {
          "name": "F#4",
          "midi": 66,
          "time": 22.666677999999973,
          "velocity": 0.7874015748031497,
          "duration": 0.3333334999999984
        },
        {
          "name": "A#4",
          "midi": 70,
          "time": 23.33334499999997,
          "velocity": 0.7874015748031497,
          "duration": 0.3333334999999984
        },
        {
          "name": "D#5",
          "midi": 75,
          "time": 24.000011999999966,
          "velocity": 0.7874015748031497,
          "duration": 0.3333334999999984
        },
        {
          "name": "D#5",
          "midi": 75,
          "time": 24.666678999999963,
          "velocity": 0.7874015748031497,
          "duration": 0.3333334999999984
        },
        {
          "name": "D#5",
          "midi": 75,
          "time": 25.33334599999996,
          "velocity": 0.7874015748031497,
          "duration": 0.3333334999999984
        },
        {
          "name": "C#5",
          "midi": 73,
          "time": 26.000012999999957,
          "velocity": 0.7874015748031497,
          "duration": 0.3333334999999984
        },
        {
          "name": "A#4",
          "midi": 70,
          "time": 26.666679999999953,
          "velocity": 0.7874015748031497,
          "duration": 0.3333334999999984
        },
        {
          "name": "A#4",
          "midi": 70,
          "time": 27.33334699999995,
          "velocity": 0.7874015748031497,
          "duration": 0.3333334999999984
        },
        {
          "name": "A#4",
          "midi": 70,
          "time": 28.000013999999947,
          "velocity": 0.7874015748031497,
          "duration": 0.3333334999999984
        },
        {
          "name": "A#4",
          "midi": 70,
          "time": 28.666680999999944,
          "velocity": 0.7874015748031497,
          "duration": 0.3333334999999984
        },
        {
          "name": "F4",
          "midi": 65,
          "time": 29.33334799999994,
          "velocity": 0.7874015748031497,
          "duration": 0.3333334999999984
        },
        {
          "name": "F4",
          "midi": 65,
          "time": 30.000014999999937,
          "velocity": 0.7874015748031497,
          "duration": 0.3333334999999984
        },
        {
          "name": "F4",
          "midi": 65,
          "time": 30.666681999999934,
          "velocity": 0.7874015748031497,
          "duration": 0.3333334999999984
        },
        {
          "name": "D#4",
          "midi": 63,
          "time": 31.33334899999993,
          "velocity": 0.7874015748031497,
          "duration": 0.3333334999999984
        },
        {
          "name": "F#4",
          "midi": 66,
          "time": 32.00001599999993,
          "velocity": 0.7874015748031497,
          "duration": 0.27777791666666474
        },
        {
          "name": "F#4",
          "midi": 66,
          "time": 32.333349499999926,
          "velocity": 0.7874015748031497,
          "duration": 0.27777791666666474
        },
        {
          "name": "F#4",
          "midi": 66,
          "time": 32.66668299999992,
          "velocity": 0.7874015748031497,
          "duration": 0.27777791666666474
        },
        {
          "name": "F#4",
          "midi": 66,
          "time": 33.000016499999916,
          "velocity": 0.7874015748031497,
          "duration": 0.27777791666666474
        },
        {
          "name": "F#4",
          "midi": 66,
          "time": 33.33334999999991,
          "velocity": 0.7874015748031497,
          "duration": 0.27777791666666474
        },
        {
          "name": "F#4",
          "midi": 66,
          "time": 33.666683499999905,
          "velocity": 0.7874015748031497,
          "duration": 0.27777791666666474
        },
        {
          "name": "F#4",
          "midi": 66,
          "time": 34.0000169999999,
          "velocity": 0.7874015748031497,
          "duration": 0.33333350000000195
        },
        {
          "name": "A#4",
          "midi": 70,
          "time": 34.3333504999999,
          "velocity": 0.7874015748031497,
          "duration": 0.33333350000000195
        },
        {
          "name": "D#5",
          "midi": 75,
          "time": 34.666683999999904,
          "velocity": 0.7874015748031497,
          "duration": 0.27777791666666474
        },
        {
          "name": "D#5",
          "midi": 75,
          "time": 35.0000174999999,
          "velocity": 0.7874015748031497,
          "duration": 0.27777791666666474
        },
        {
          "name": "D#5",
          "midi": 75,
          "time": 35.333350999999894,
          "velocity": 0.7874015748031497,
          "duration": 0.27777791666666474
        },
        {
          "name": "D#5",
          "midi": 75,
          "time": 35.66668449999989,
          "velocity": 0.7874015748031497,
          "duration": 0.27777791666666474
        },
        {
          "name": "D#5",
          "midi": 75,
          "time": 36.00001799999988,
          "velocity": 0.7874015748031497,
          "duration": 0.27777791666666474
        },
        {
          "name": "D#5",
          "midi": 75,
          "time": 36.33335149999988,
          "velocity": 0.7874015748031497,
          "duration": 0.27777791666666474
        },
        {
          "name": "C#5",
          "midi": 73,
          "time": 36.66668499999987,
          "velocity": 0.7874015748031497,
          "duration": 0.27777791666666474
        },
        {
          "name": "C#5",
          "midi": 73,
          "time": 37.00001849999987,
          "velocity": 0.7874015748031497,
          "duration": 0.27777791666666474
        },
        {
          "name": "A#4",
          "midi": 70,
          "time": 37.33335199999986,
          "velocity": 0.7874015748031497,
          "duration": 0.27777791666666474
        },
        {
          "name": "A#4",
          "midi": 70,
          "time": 37.66668549999986,
          "velocity": 0.7874015748031497,
          "duration": 0.27777791666666474
        },
        {
          "name": "A#4",
          "midi": 70,
          "time": 38.00001899999985,
          "velocity": 0.7874015748031497,
          "duration": 0.27777791666666474
        },
        {
          "name": "A#4",
          "midi": 70,
          "time": 38.33335249999985,
          "velocity": 0.7874015748031497,
          "duration": 0.27777791666666474
        },
        {
          "name": "A#4",
          "midi": 70,
          "time": 38.66668599999984,
          "velocity": 0.7874015748031497,
          "duration": 0.27777791666666474
        },
        {
          "name": "A#4",
          "midi": 70,
          "time": 39.00001949999984,
          "velocity": 0.7874015748031497,
          "duration": 0.27777791666666474
        },
        {
          "name": "A#4",
          "midi": 70,
          "time": 39.33335299999983,
          "velocity": 0.7874015748031497,
          "duration": 0.2500001249999997
        },
        {
          "name": "A#4",
          "midi": 70,
          "time": 39.666686499999834,
          "velocity": 0.7874015748031497,
          "duration": 0.27777791666666474
        },
        {
          "name": "F4",
          "midi": 65,
          "time": 40.00001999999983,
          "velocity": 0.7874015748031497,
          "duration": 0.27777791666666474
        },
        {
          "name": "F4",
          "midi": 65,
          "time": 40.333353499999824,
          "velocity": 0.7874015748031497,
          "duration": 0.27777791666666474
        },
        {
          "name": "F4",
          "midi": 65,
          "time": 40.66668699999982,
          "velocity": 0.7874015748031497,
          "duration": 0.27777791666666474
        },
        {
          "name": "F4",
          "midi": 65,
          "time": 41.00002049999981,
          "velocity": 0.7874015748031497,
          "duration": 0.27777791666666474
        },
        {
          "name": "F4",
          "midi": 65,
          "time": 41.33335399999981,
          "velocity": 0.7874015748031497,
          "duration": 0.27777791666666474
        },
        {
          "name": "F4",
          "midi": 65,
          "time": 41.6666874999998,
          "velocity": 0.7874015748031497,
          "duration": 0.27777791666666474
        },
        {
          "name": "F4",
          "midi": 65,
          "time": 42.0000209999998,
          "velocity": 0.7874015748031497,
          "duration": 0.27777791666666474
        },
        {
          "name": "F4",
          "midi": 65,
          "time": 42.33335449999979,
          "velocity": 0.7874015748031497,
          "duration": 0.27777791666666474
        },
        {
          "name": "F#4",
          "midi": 66,
          "time": 42.66668799999979,
          "velocity": 0.7874015748031497,
          "duration": 0.27777791666666474
        },
        {
          "name": "F#4",
          "midi": 66,
          "time": 43.00002149999978,
          "velocity": 0.7874015748031497,
          "duration": 0.27777791666666474
        },
        {
          "name": "F#4",
          "midi": 66,
          "time": 43.33335499999978,
          "velocity": 0.7874015748031497,
          "duration": 0.27777791666666474
        },
        {
          "name": "F#4",
          "midi": 66,
          "time": 43.66668849999977,
          "velocity": 0.7874015748031497,
          "duration": 0.27777791666666474
        },
        {
          "name": "F#4",
          "midi": 66,
          "time": 44.00002199999977,
          "velocity": 0.7874015748031497,
          "duration": 0.27777791666666474
        },
        {
          "name": "F#4",
          "midi": 66,
          "time": 44.33335549999976,
          "velocity": 0.7874015748031497,
          "duration": 0.27777791666666474
        },
        {
          "name": "F#4",
          "midi": 66,
          "time": 44.66668899999976,
          "velocity": 0.7874015748031497,
          "duration": 0.33333350000000195
        },
        {
          "name": "A#4",
          "midi": 70,
          "time": 45.00002249999976,
          "velocity": 0.7874015748031497,
          "duration": 0.33333350000000195
        },
        {
          "name": "D#5",
          "midi": 75,
          "time": 45.33335599999976,
          "velocity": 0.7874015748031497,
          "duration": 0.27777791666666474
        },
        {
          "name": "D#5",
          "midi": 75,
          "time": 45.666689499999755,
          "velocity": 0.7874015748031497,
          "duration": 0.27777791666666474
        },
        {
          "name": "D#5",
          "midi": 75,
          "time": 46.00002299999975,
          "velocity": 0.7874015748031497,
          "duration": 0.27777791666666474
        },
        {
          "name": "D#5",
          "midi": 75,
          "time": 46.333356499999745,
          "velocity": 0.7874015748031497,
          "duration": 0.27777791666666474
        },
        {
          "name": "D#5",
          "midi": 75,
          "time": 46.66668999999974,
          "velocity": 0.7874015748031497,
          "duration": 0.27777791666666474
        },
        {
          "name": "D#5",
          "midi": 75,
          "time": 47.000023499999735,
          "velocity": 0.7874015748031497,
          "duration": 0.27777791666666474
        },
        {
          "name": "C#5",
          "midi": 73,
          "time": 47.33335699999973,
          "velocity": 0.7874015748031497,
          "duration": 0.27777791666666474
        },
        {
          "name": "C#5",
          "midi": 73,
          "time": 47.666690499999724,
          "velocity": 0.7874015748031497,
          "duration": 0.27777791666666474
        },
        {
          "name": "A#4",
          "midi": 70,
          "time": 48.00002399999972,
          "velocity": 0.7874015748031497,
          "duration": 0.27777791666666474
        },
        {
          "name": "A#4",
          "midi": 70,
          "time": 48.333357499999714,
          "velocity": 0.7874015748031497,
          "duration": 0.27777791666666474
        },
        {
          "name": "A#4",
          "midi": 70,
          "time": 48.66669099999971,
          "velocity": 0.7874015748031497,
          "duration": 0.27777791666666474
        },
        {
          "name": "A#4",
          "midi": 70,
          "time": 49.000024499999704,
          "velocity": 0.7874015748031497,
          "duration": 0.27777791666666474
        },
        {
          "name": "A#4",
          "midi": 70,
          "time": 49.3333579999997,
          "velocity": 0.7874015748031497,
          "duration": 0.27777791666666474
        },
        {
          "name": "A#4",
          "midi": 70,
          "time": 49.66669149999969,
          "velocity": 0.7874015748031497,
          "duration": 0.27777791666666474
        },
        {
          "name": "A#4",
          "midi": 70,
          "time": 50.00002499999969,
          "velocity": 0.7874015748031497,
          "duration": 0.2500001249999997
        },
        {
          "name": "A#4",
          "midi": 70,
          "time": 50.33335849999969,
          "velocity": 0.7874015748031497,
          "duration": 0.33333350000000195
        },
        {
          "name": "F4",
          "midi": 65,
          "time": 50.66669199999969,
          "velocity": 0.7874015748031497,
          "duration": 0.27777791666666474
        },
        {
          "name": "F4",
          "midi": 65,
          "time": 51.00002549999969,
          "velocity": 0.7874015748031497,
          "duration": 0.27777791666666474
        },
        {
          "name": "F4",
          "midi": 65,
          "time": 51.33335899999968,
          "velocity": 0.7874015748031497,
          "duration": 0.27777791666666474
        },
        {
          "name": "F4",
          "midi": 65,
          "time": 51.66669249999968,
          "velocity": 0.7874015748031497,
          "duration": 0.27777791666666474
        },
        {
          "name": "F4",
          "midi": 65,
          "time": 52.00002599999967,
          "velocity": 0.7874015748031497,
          "duration": 0.27777791666666474
        },
        {
          "name": "F4",
          "midi": 65,
          "time": 52.333359499999666,
          "velocity": 0.7874015748031497,
          "duration": 0.27777791666666474
        },
        {
          "name": "F4",
          "midi": 65,
          "time": 52.66669299999966,
          "velocity": 0.7874015748031497,
          "duration": 0.27777791666666474
        },
        {
          "name": "F4",
          "midi": 65,
          "time": 53.000026499999656,
          "velocity": 0.7874015748031497,
          "duration": 0.27777791666666474
        },
        {
          "name": "F#4",
          "midi": 66,
          "time": 53.33335999999965,
          "velocity": 0.7874015748031497,
          "duration": 0.27777791666666474
        },
        {
          "name": "F#4",
          "midi": 66,
          "time": 53.666693499999646,
          "velocity": 0.7874015748031497,
          "duration": 0.27777791666666474
        },
        {
          "name": "F#4",
          "midi": 66,
          "time": 54.00002699999964,
          "velocity": 0.7874015748031497,
          "duration": 0.27777791666666474
        },
        {
          "name": "F#4",
          "midi": 66,
          "time": 54.333360499999635,
          "velocity": 0.7874015748031497,
          "duration": 0.27777791666666474
        },
        {
          "name": "A#4",
          "midi": 70,
          "time": 54.66669399999963,
          "velocity": 0.7874015748031497,
          "duration": 0.27777791666666474
        },
        {
          "name": "A#4",
          "midi": 70,
          "time": 55.000027499999625,
          "velocity": 0.7874015748031497,
          "duration": 0.3055557083333369
        },
        {
          "name": "F#5",
          "midi": 78,
          "time": 55.33336099999963,
          "velocity": 0.7874015748031497,
          "duration": 0.3055557083333298
        },
        {
          "name": "F5",
          "midi": 77,
          "time": 55.66669449999962,
          "velocity": 0.7874015748031497,
          "duration": 0.3055557083333298
        },
        {
          "name": "D#5",
          "midi": 75,
          "time": 56.00002799999962,
          "velocity": 0.7874015748031497,
          "duration": 0.27777791666666474
        },
        {
          "name": "D#5",
          "midi": 75,
          "time": 56.33336149999961,
          "velocity": 0.7874015748031497,
          "duration": 0.27777791666666474
        },
        {
          "name": "D#5",
          "midi": 75,
          "time": 56.666694999999606,
          "velocity": 0.7874015748031497,
          "duration": 0.27777791666666474
        },
        {
          "name": "C#5",
          "midi": 73,
          "time": 57.0000284999996,
          "velocity": 0.7874015748031497,
          "duration": 0.27777791666666474
        },
        {
          "name": "C#5",
          "midi": 73,
          "time": 57.333361999999596,
          "velocity": 0.7874015748031497,
          "duration": 0.27777791666666474
        },
        {
          "name": "C#5",
          "midi": 73,
          "time": 57.66669549999959,
          "velocity": 0.7874015748031497,
          "duration": 0.27777791666666474
        },
        {
          "name": "G#4",
          "midi": 68,
          "time": 58.000028999999586,
          "velocity": 0.7874015748031497,
          "duration": 0.27777791666666474
        },
        {
          "name": "G#4",
          "midi": 68,
          "time": 58.33336249999958,
          "velocity": 0.7874015748031497,
          "duration": 0.27777791666666474
        },
        {
          "name": "A#4",
          "midi": 70,
          "time": 58.666695999999575,
          "velocity": 0.7874015748031497,
          "duration": 0.27777791666666474
        },
        {
          "name": "A#4",
          "midi": 70,
          "time": 59.00002949999957,
          "velocity": 0.7874015748031497,
          "duration": 0.27777791666666474
        },
        {
          "name": "A#4",
          "midi": 70,
          "time": 59.333362999999565,
          "velocity": 0.7874015748031497,
          "duration": 0.27777791666666474
        },
        {
          "name": "A#4",
          "midi": 70,
          "time": 59.66669649999956,
          "velocity": 0.7874015748031497,
          "duration": 0.27777791666666474
        },
        {
          "name": "C#5",
          "midi": 73,
          "time": 60.000029999999555,
          "velocity": 0.7874015748031497,
          "duration": 0.27777791666666474
        },
        {
          "name": "B4",
          "midi": 71,
          "time": 60.33336349999955,
          "velocity": 0.7874015748031497,
          "duration": 0.27777791666666474
        },
        {
          "name": "A#4",
          "midi": 70,
          "time": 60.666696999999544,
          "velocity": 0.7874015748031497,
          "duration": 0.3055557083333298
        },
        {
          "name": "F#4",
          "midi": 66,
          "time": 61.00003049999954,
          "velocity": 0.7874015748031497,
          "duration": 0.33333350000000195
        },
        {
          "name": "F4",
          "midi": 65,
          "time": 61.33336399999954,
          "velocity": 0.7874015748031497,
          "duration": 0.27777791666666474
        },
        {
          "name": "F4",
          "midi": 65,
          "time": 61.666697499999536,
          "velocity": 0.7874015748031497,
          "duration": 0.27777791666666474
        },
        {
          "name": "F4",
          "midi": 65,
          "time": 62.00003099999953,
          "velocity": 0.7874015748031497,
          "duration": 0.27777791666666474
        },
        {
          "name": "F4",
          "midi": 65,
          "time": 62.333364499999526,
          "velocity": 0.7874015748031497,
          "duration": 0.27777791666666474
        },
        {
          "name": "G#4",
          "midi": 68,
          "time": 62.66669799999952,
          "velocity": 0.7874015748031497,
          "duration": 0.6666669999999968
        },
        {
          "name": "F4",
          "midi": 65,
          "time": 63.33336499999952,
          "velocity": 0.7874015748031497,
          "duration": 0.6666670000000039
        },
        {
          "name": "F#4",
          "midi": 66,
          "time": 64.00003199999952,
          "velocity": 0.7874015748031497,
          "duration": 0.27777791666666474
        },
        {
          "name": "F#4",
          "midi": 66,
          "time": 64.33336549999952,
          "velocity": 0.7874015748031497,
          "duration": 0.27777791666666474
        },
        {
          "name": "F#4",
          "midi": 66,
          "time": 64.66669899999951,
          "velocity": 0.7874015748031497,
          "duration": 0.27777791666666474
        },
        {
          "name": "F#4",
          "midi": 66,
          "time": 65.0000324999995,
          "velocity": 0.7874015748031497,
          "duration": 0.27777791666666474
        },
        {
          "name": "A#4",
          "midi": 70,
          "time": 65.3333659999995,
          "velocity": 0.7874015748031497,
          "duration": 0.27777791666666474
        },
        {
          "name": "A#4",
          "midi": 70,
          "time": 65.6666994999995,
          "velocity": 0.7874015748031497,
          "duration": 0.3055557083333298
        },
        {
          "name": "F#5",
          "midi": 78,
          "time": 66.00003299999949,
          "velocity": 0.7874015748031497,
          "duration": 0.3055557083333298
        },
        {
          "name": "F5",
          "midi": 77,
          "time": 66.33336649999949,
          "velocity": 0.7874015748031497,
          "duration": 0.3055557083333298
        },
        {
          "name": "D#5",
          "midi": 75,
          "time": 66.66669999999948,
          "velocity": 0.7874015748031497,
          "duration": 0.27777791666666474
        },
        {
          "name": "D#5",
          "midi": 75,
          "time": 67.00003349999947,
          "velocity": 0.7874015748031497,
          "duration": 0.27777791666666474
        },
        {
          "name": "D#5",
          "midi": 75,
          "time": 67.33336699999947,
          "velocity": 0.7874015748031497,
          "duration": 0.27777791666666474
        },
        {
          "name": "C#5",
          "midi": 73,
          "time": 67.66670049999946,
          "velocity": 0.7874015748031497,
          "duration": 0.27777791666666474
        },
        {
          "name": "C#5",
          "midi": 73,
          "time": 68.00003399999946,
          "velocity": 0.7874015748031497,
          "duration": 0.27777791666666474
        },
        {
          "name": "C#5",
          "midi": 73,
          "time": 68.33336749999945,
          "velocity": 0.7874015748031497,
          "duration": 0.27777791666666474
        },
        {
          "name": "G#4",
          "midi": 68,
          "time": 68.66670099999945,
          "velocity": 0.7874015748031497,
          "duration": 0.27777791666666474
        },
        {
          "name": "G#4",
          "midi": 68,
          "time": 69.00003449999944,
          "velocity": 0.7874015748031497,
          "duration": 0.27777791666666474
        },
        {
          "name": "A#4",
          "midi": 70,
          "time": 69.33336799999944,
          "velocity": 0.7874015748031497,
          "duration": 0.27777791666666474
        },
        {
          "name": "A#4",
          "midi": 70,
          "time": 69.66670149999943,
          "velocity": 0.7874015748031497,
          "duration": 0.27777791666666474
        },
        {
          "name": "A#4",
          "midi": 70,
          "time": 70.00003499999943,
          "velocity": 0.7874015748031497,
          "duration": 0.27777791666666474
        },
        {
          "name": "A#4",
          "midi": 70,
          "time": 70.33336849999942,
          "velocity": 0.7874015748031497,
          "duration": 0.27777791666666474
        },
        {
          "name": "C#5",
          "midi": 73,
          "time": 70.66670199999942,
          "velocity": 0.7874015748031497,
          "duration": 0.27777791666666474
        },
        {
          "name": "B4",
          "midi": 71,
          "time": 71.00003549999941,
          "velocity": 0.7874015748031497,
          "duration": 0.27777791666666474
        },
        {
          "name": "A#4",
          "midi": 70,
          "time": 71.33336899999941,
          "velocity": 0.7874015748031497,
          "duration": 0.3055557083333298
        },
        {
          "name": "F#4",
          "midi": 66,
          "time": 71.6667024999994,
          "velocity": 0.7874015748031497,
          "duration": 0.33333349999999484
        },
        {
          "name": "F4",
          "midi": 65,
          "time": 72.0000359999994,
          "velocity": 0.7874015748031497,
          "duration": 0.27777791666666474
        },
        {
          "name": "F4",
          "midi": 65,
          "time": 72.33336949999939,
          "velocity": 0.7874015748031497,
          "duration": 0.27777791666666474
        },
        {
          "name": "F4",
          "midi": 65,
          "time": 72.66670299999939,
          "velocity": 0.7874015748031497,
          "duration": 0.27777791666666474
        },
        {
          "name": "F4",
          "midi": 65,
          "time": 73.00003649999938,
          "velocity": 0.7874015748031497,
          "duration": 0.27777791666666474
        },
        {
          "name": "F#4",
          "midi": 66,
          "time": 73.33336999999938,
          "velocity": 0.7874015748031497,
          "duration": 0.6666670000000039
        },
        {
          "name": "G#4",
          "midi": 68,
          "time": 74.00003699999938,
          "velocity": 0.7874015748031497,
          "duration": 0.33333349999999484
        },
        {
          "name": "F#4",
          "midi": 66,
          "time": 74.33337049999938,
          "velocity": 0.7874015748031497,
          "duration": 0.6666670000000039
        }
      ],
      "controlChanges": {
        "6": [
          {
            "number": 6,
            "time": 0,
            "value": 0.09448818897637795
          },
          {
            "number": 6,
            "time": 0,
            "value": 0.09448818897637795
          },
          {
            "number": 6,
            "time": 77.33337199999939,
            "value": 0.09448818897637795
          },
          {
            "number": 6,
            "time": 77.34031644791605,
            "value": 0.09448818897637795
          },
          {
            "number": 6,
            "time": 77.34031644791605,
            "value": 0.09448818897637795
          }
        ],
        "7": [
          {
            "number": 7,
            "time": 0,
            "value": 0.7874015748031497
          },
          {
            "number": 7,
            "time": 0,
            "value": 0.7874015748031497
          },
          {
            "number": 7,
            "time": 0,
            "value": 0.7874015748031497
          },
          {
            "number": 7,
            "time": 0,
            "value": 0.7874015748031497
          },
          {
            "number": 7,
            "time": 0,
            "value": 0.7874015748031497
          },
          {
            "number": 7,
            "time": 77.33337199999939,
            "value": 0.7874015748031497
          },
          {
            "number": 7,
            "time": 77.34031644791605,
            "value": 0.7874015748031497
          },
          {
            "number": 7,
            "time": 77.34031644791605,
            "value": 0.7874015748031497
          }
        ],
        "10": [
          {
            "number": 10,
            "time": 0,
            "value": 0.5039370078740157
          },
          {
            "number": 10,
            "time": 0,
            "value": 0.5039370078740157
          },
          {
            "number": 10,
            "time": 0,
            "value": 0.5039370078740157
          },
          {
            "number": 10,
            "time": 0,
            "value": 0.5039370078740157
          },
          {
            "number": 10,
            "time": 0,
            "value": 0.5039370078740157
          },
          {
            "number": 10,
            "time": 77.33337199999939,
            "value": 0.5039370078740157
          },
          {
            "number": 10,
            "time": 77.34031644791605,
            "value": 0.5039370078740157
          },
          {
            "number": 10,
            "time": 77.34031644791605,
            "value": 0.5039370078740157
          }
        ],
        "100": [
          {
            "number": 100,
            "time": 0,
            "value": 0
          },
          {
            "number": 100,
            "time": 0,
            "value": 0
          },
          {
            "number": 100,
            "time": 77.33337199999939,
            "value": 0
          },
          {
            "number": 100,
            "time": 77.34031644791605,
            "value": 0
          },
          {
            "number": 100,
            "time": 77.34031644791605,
            "value": 0
          }
        ],
        "101": [
          {
            "number": 101,
            "time": 0,
            "value": 0
          },
          {
            "number": 101,
            "time": 0,
            "value": 0
          },
          {
            "number": 101,
            "time": 77.33337199999939,
            "value": 0
          },
          {
            "number": 101,
            "time": 77.34031644791605,
            "value": 0
          },
          {
            "number": 101,
            "time": 77.34031644791605,
            "value": 0
          }
        ]
      },
      "id": 2,
      "name": "Right Hand",
      "channelNumber": 0,
      "isPercussion": false
    },
    {
      "startTime": 0,
      "duration": 74.66670400000002,
      "length": 28,
      "notes": [
        {
          "name": "D#3",
          "midi": 51,
          "time": 0,
          "velocity": 0.7874015748031497,
          "duration": 2.666668
        },
        {
          "name": "B2",
          "midi": 47,
          "time": 2.666668,
          "velocity": 0.7874015748031497,
          "duration": 2.666668
        },
        {
          "name": "F#3",
          "midi": 54,
          "time": 5.333336,
          "velocity": 0.7874015748031497,
          "duration": 2.6666680000000005
        },
        {
          "name": "C#3",
          "midi": 49,
          "time": 8.000004,
          "velocity": 0.7874015748031497,
          "duration": 2.6666679999999996
        },
        {
          "name": "D#3",
          "midi": 51,
          "time": 10.666672,
          "velocity": 0.7874015748031497,
          "duration": 2.6666679999999996
        },
        {
          "name": "B2",
          "midi": 47,
          "time": 13.33334,
          "velocity": 0.7874015748031497,
          "duration": 2.6666680000000014
        },
        {
          "name": "F#3",
          "midi": 54,
          "time": 16.000008,
          "velocity": 0.7874015748031497,
          "duration": 2.6666680000000014
        },
        {
          "name": "C#3",
          "midi": 49,
          "time": 18.666676000000002,
          "velocity": 0.7874015748031497,
          "duration": 2.6666680000000014
        },
        {
          "name": "D#3",
          "midi": 51,
          "time": 21.333344000000004,
          "velocity": 0.7874015748031497,
          "duration": 2.6666680000000014
        },
        {
          "name": "B2",
          "midi": 47,
          "time": 24.000012000000005,
          "velocity": 0.7874015748031497,
          "duration": 2.6666680000000014
        },
        {
          "name": "F#3",
          "midi": 54,
          "time": 26.666680000000007,
          "velocity": 0.7874015748031497,
          "duration": 2.6666680000000014
        },
        {
          "name": "C#3",
          "midi": 49,
          "time": 29.333348000000008,
          "velocity": 0.7874015748031497,
          "duration": 2.6666680000000014
        },
        {
          "name": "D#3",
          "midi": 51,
          "time": 32.00001600000001,
          "velocity": 0.7874015748031497,
          "duration": 2.6666680000000014
        },
        {
          "name": "B2",
          "midi": 47,
          "time": 34.66668400000001,
          "velocity": 0.7874015748031497,
          "duration": 2.6666680000000014
        },
        {
          "name": "F#3",
          "midi": 54,
          "time": 37.33335200000001,
          "velocity": 0.7874015748031497,
          "duration": 2.6666680000000014
        },
        {
          "name": "C#3",
          "midi": 49,
          "time": 40.00002000000001,
          "velocity": 0.7874015748031497,
          "duration": 2.6666680000000014
        },
        {
          "name": "D#3",
          "midi": 51,
          "time": 42.666688000000015,
          "velocity": 0.7874015748031497,
          "duration": 2.6666680000000014
        },
        {
          "name": "B2",
          "midi": 47,
          "time": 45.333356000000016,
          "velocity": 0.7874015748031497,
          "duration": 2.6666680000000014
        },
        {
          "name": "F#3",
          "midi": 54,
          "time": 48.00002400000002,
          "velocity": 0.7874015748031497,
          "duration": 2.6666680000000014
        },
        {
          "name": "C#3",
          "midi": 49,
          "time": 50.66669200000002,
          "velocity": 0.7874015748031497,
          "duration": 2.6666680000000014
        },
        {
          "name": "D#3",
          "midi": 51,
          "time": 53.33336000000002,
          "velocity": 0.7874015748031497,
          "duration": 2.6666680000000014
        },
        {
          "name": "B2",
          "midi": 47,
          "time": 56.00002800000002,
          "velocity": 0.7874015748031497,
          "duration": 2.6666680000000014
        },
        {
          "name": "F#3",
          "midi": 54,
          "time": 58.66669600000002,
          "velocity": 0.7874015748031497,
          "duration": 2.6666680000000014
        },
        {
          "name": "C#3",
          "midi": 49,
          "time": 61.333364000000024,
          "velocity": 0.7874015748031497,
          "duration": 2.6666679999999943
        },
        {
          "name": "D#3",
          "midi": 51,
          "time": 64.00003200000002,
          "velocity": 0.7874015748031497,
          "duration": 2.6666680000000014
        },
        {
          "name": "B2",
          "midi": 47,
          "time": 66.66670000000002,
          "velocity": 0.7874015748031497,
          "duration": 2.6666680000000014
        },
        {
          "name": "F#3",
          "midi": 54,
          "time": 69.33336800000002,
          "velocity": 0.7874015748031497,
          "duration": 2.6666680000000014
        },
        {
          "name": "C#3",
          "midi": 49,
          "time": 72.00003600000002,
          "velocity": 0.7874015748031497,
          "duration": 2.6666680000000014
        }
      ],
      "controlChanges": {
        "6": [
          {
            "number": 6,
            "time": 0,
            "value": 0.09448818897637795
          },
          {
            "number": 6,
            "time": 0,
            "value": 0.09448818897637795
          },
          {
            "number": 6,
            "time": 77.33337200000003,
            "value": 0.09448818897637795
          },
          {
            "number": 6,
            "time": 77.34031644791669,
            "value": 0.09448818897637795
          },
          {
            "number": 6,
            "time": 77.34031644791669,
            "value": 0.09448818897637795
          }
        ],
        "7": [
          {
            "number": 7,
            "time": 0,
            "value": 0.7874015748031497
          },
          {
            "number": 7,
            "time": 0,
            "value": 0.7874015748031497
          },
          {
            "number": 7,
            "time": 0,
            "value": 0.7874015748031497
          },
          {
            "number": 7,
            "time": 0,
            "value": 0.7874015748031497
          },
          {
            "number": 7,
            "time": 0,
            "value": 0.7874015748031497
          },
          {
            "number": 7,
            "time": 77.33337200000003,
            "value": 0.7874015748031497
          },
          {
            "number": 7,
            "time": 77.34031644791669,
            "value": 0.7874015748031497
          },
          {
            "number": 7,
            "time": 77.34031644791669,
            "value": 0.7874015748031497
          }
        ],
        "10": [
          {
            "number": 10,
            "time": 0,
            "value": 0.5039370078740157
          },
          {
            "number": 10,
            "time": 0,
            "value": 0.5039370078740157
          },
          {
            "number": 10,
            "time": 0,
            "value": 0.5039370078740157
          },
          {
            "number": 10,
            "time": 0,
            "value": 0.5039370078740157
          },
          {
            "number": 10,
            "time": 0,
            "value": 0.5039370078740157
          },
          {
            "number": 10,
            "time": 77.33337200000003,
            "value": 0.5039370078740157
          },
          {
            "number": 10,
            "time": 77.34031644791669,
            "value": 0.5039370078740157
          },
          {
            "number": 10,
            "time": 77.34031644791669,
            "value": 0.5039370078740157
          }
        ],
        "100": [
          {
            "number": 100,
            "time": 0,
            "value": 0
          },
          {
            "number": 100,
            "time": 0,
            "value": 0
          },
          {
            "number": 100,
            "time": 77.33337200000003,
            "value": 0
          },
          {
            "number": 100,
            "time": 77.34031644791669,
            "value": 0
          },
          {
            "number": 100,
            "time": 77.34031644791669,
            "value": 0
          }
        ],
        "101": [
          {
            "number": 101,
            "time": 0,
            "value": 0
          },
          {
            "number": 101,
            "time": 0,
            "value": 0
          },
          {
            "number": 101,
            "time": 77.33337200000003,
            "value": 0
          },
          {
            "number": 101,
            "time": 77.34031644791669,
            "value": 0
          },
          {
            "number": 101,
            "time": 77.34031644791669,
            "value": 0
          }
        ]
      },
      "id": 3,
      "name": "Left Hand",
      "channelNumber": 0,
      "isPercussion": false
    },
    {
      "startTime": 0,
      "duration": 0,
      "length": 0,
      "notes": [],
      "controlChanges": {
        "6": [
          {
            "number": 6,
            "time": 0,
            "value": 0.09448818897637795
          },
          {
            "number": 6,
            "time": 0,
            "value": 0.09448818897637795
          },
          {
            "number": 6,
            "time": 77.333372,
            "value": 0.09448818897637795
          },
          {
            "number": 6,
            "time": 77.34031644791666,
            "value": 0.09448818897637795
          },
          {
            "number": 6,
            "time": 77.34031644791666,
            "value": 0.09448818897637795
          }
        ],
        "7": [
          {
            "number": 7,
            "time": 0,
            "value": 0.7874015748031497
          },
          {
            "number": 7,
            "time": 0,
            "value": 0.7874015748031497
          },
          {
            "number": 7,
            "time": 0,
            "value": 0.7874015748031497
          },
          {
            "number": 7,
            "time": 0,
            "value": 0.7874015748031497
          },
          {
            "number": 7,
            "time": 0,
            "value": 0.7874015748031497
          },
          {
            "number": 7,
            "time": 77.333372,
            "value": 0.7874015748031497
          },
          {
            "number": 7,
            "time": 77.34031644791666,
            "value": 0.7874015748031497
          },
          {
            "number": 7,
            "time": 77.34031644791666,
            "value": 0.7874015748031497
          }
        ],
        "10": [
          {
            "number": 10,
            "time": 0,
            "value": 0.5039370078740157
          },
          {
            "number": 10,
            "time": 0,
            "value": 0.5039370078740157
          },
          {
            "number": 10,
            "time": 0,
            "value": 0.5039370078740157
          },
          {
            "number": 10,
            "time": 0,
            "value": 0.5039370078740157
          },
          {
            "number": 10,
            "time": 0,
            "value": 0.5039370078740157
          },
          {
            "number": 10,
            "time": 77.333372,
            "value": 0.5039370078740157
          },
          {
            "number": 10,
            "time": 77.34031644791666,
            "value": 0.5039370078740157
          },
          {
            "number": 10,
            "time": 77.34031644791666,
            "value": 0.5039370078740157
          }
        ],
        "100": [
          {
            "number": 100,
            "time": 0,
            "value": 0
          },
          {
            "number": 100,
            "time": 0,
            "value": 0
          },
          {
            "number": 100,
            "time": 77.333372,
            "value": 0
          },
          {
            "number": 100,
            "time": 77.34031644791666,
            "value": 0
          },
          {
            "number": 100,
            "time": 77.34031644791666,
            "value": 0
          }
        ],
        "101": [
          {
            "number": 101,
            "time": 0,
            "value": 0
          },
          {
            "number": 101,
            "time": 0,
            "value": 0
          },
          {
            "number": 101,
            "time": 77.333372,
            "value": 0
          },
          {
            "number": 101,
            "time": 77.34031644791666,
            "value": 0
          },
          {
            "number": 101,
            "time": 77.34031644791666,
            "value": 0
          }
        ]
      },
      "id": 4,
      "name": "Alan Walker - Faded",
      "instrumentNumber": 0,
      "instrument": "acoustic grand piano",
      "instrumentFamily": "piano",
      "channelNumber": 0,
      "isPercussion": false
    },
    {
      "startTime": 0,
      "duration": 0,
      "length": 0,
      "notes": [],
      "controlChanges": {
        "6": [
          {
            "number": 6,
            "time": 0,
            "value": 0.09448818897637795
          },
          {
            "number": 6,
            "time": 0,
            "value": 0.09448818897637795
          },
          {
            "number": 6,
            "time": 77.333372,
            "value": 0.09448818897637795
          },
          {
            "number": 6,
            "time": 77.34031644791666,
            "value": 0.09448818897637795
          },
          {
            "number": 6,
            "time": 77.34031644791666,
            "value": 0.09448818897637795
          }
        ],
        "7": [
          {
            "number": 7,
            "time": 0,
            "value": 0.7874015748031497
          },
          {
            "number": 7,
            "time": 0,
            "value": 0.7874015748031497
          },
          {
            "number": 7,
            "time": 0,
            "value": 0.7874015748031497
          },
          {
            "number": 7,
            "time": 0,
            "value": 0.7874015748031497
          },
          {
            "number": 7,
            "time": 0,
            "value": 0.7874015748031497
          },
          {
            "number": 7,
            "time": 77.333372,
            "value": 0.7874015748031497
          },
          {
            "number": 7,
            "time": 77.34031644791666,
            "value": 0.7874015748031497
          },
          {
            "number": 7,
            "time": 77.34031644791666,
            "value": 0.7874015748031497
          }
        ],
        "10": [
          {
            "number": 10,
            "time": 0,
            "value": 0.5039370078740157
          },
          {
            "number": 10,
            "time": 0,
            "value": 0.5039370078740157
          },
          {
            "number": 10,
            "time": 0,
            "value": 0.5039370078740157
          },
          {
            "number": 10,
            "time": 0,
            "value": 0.5039370078740157
          },
          {
            "number": 10,
            "time": 0,
            "value": 0.5039370078740157
          },
          {
            "number": 10,
            "time": 77.333372,
            "value": 0.5039370078740157
          },
          {
            "number": 10,
            "time": 77.34031644791666,
            "value": 0.5039370078740157
          },
          {
            "number": 10,
            "time": 77.34031644791666,
            "value": 0.5039370078740157
          }
        ],
        "100": [
          {
            "number": 100,
            "time": 0,
            "value": 0
          },
          {
            "number": 100,
            "time": 0,
            "value": 0
          },
          {
            "number": 100,
            "time": 77.333372,
            "value": 0
          },
          {
            "number": 100,
            "time": 77.34031644791666,
            "value": 0
          },
          {
            "number": 100,
            "time": 77.34031644791666,
            "value": 0
          }
        ],
        "101": [
          {
            "number": 101,
            "time": 0,
            "value": 0
          },
          {
            "number": 101,
            "time": 0,
            "value": 0
          },
          {
            "number": 101,
            "time": 77.333372,
            "value": 0
          },
          {
            "number": 101,
            "time": 77.34031644791666,
            "value": 0
          },
          {
            "number": 101,
            "time": 77.34031644791666,
            "value": 0
          }
        ]
      },
      "id": 5,
      "name": "Carlo Prato",
      "instrumentNumber": 0,
      "instrument": "acoustic grand piano",
      "instrumentFamily": "piano",
      "channelNumber": 0,
      "isPercussion": false
    },
    {
      "startTime": 0,
      "duration": 0,
      "length": 0,
      "notes": [],
      "controlChanges": {
        "6": [
          {
            "number": 6,
            "time": 0,
            "value": 0.09448818897637795
          },
          {
            "number": 6,
            "time": 0,
            "value": 0.09448818897637795
          },
          {
            "number": 6,
            "time": 77.333372,
            "value": 0.09448818897637795
          },
          {
            "number": 6,
            "time": 77.34031644791666,
            "value": 0.09448818897637795
          },
          {
            "number": 6,
            "time": 77.34031644791666,
            "value": 0.09448818897637795
          }
        ],
        "7": [
          {
            "number": 7,
            "time": 0,
            "value": 0.7874015748031497
          },
          {
            "number": 7,
            "time": 0,
            "value": 0.7874015748031497
          },
          {
            "number": 7,
            "time": 0,
            "value": 0.7874015748031497
          },
          {
            "number": 7,
            "time": 0,
            "value": 0.7874015748031497
          },
          {
            "number": 7,
            "time": 0,
            "value": 0.7874015748031497
          },
          {
            "number": 7,
            "time": 77.333372,
            "value": 0.7874015748031497
          },
          {
            "number": 7,
            "time": 77.34031644791666,
            "value": 0.7874015748031497
          },
          {
            "number": 7,
            "time": 77.34031644791666,
            "value": 0.7874015748031497
          }
        ],
        "10": [
          {
            "number": 10,
            "time": 0,
            "value": 0.5039370078740157
          },
          {
            "number": 10,
            "time": 0,
            "value": 0.5039370078740157
          },
          {
            "number": 10,
            "time": 0,
            "value": 0.5039370078740157
          },
          {
            "number": 10,
            "time": 0,
            "value": 0.5039370078740157
          },
          {
            "number": 10,
            "time": 0,
            "value": 0.5039370078740157
          },
          {
            "number": 10,
            "time": 77.333372,
            "value": 0.5039370078740157
          },
          {
            "number": 10,
            "time": 77.34031644791666,
            "value": 0.5039370078740157
          },
          {
            "number": 10,
            "time": 77.34031644791666,
            "value": 0.5039370078740157
          }
        ],
        "100": [
          {
            "number": 100,
            "time": 0,
            "value": 0
          },
          {
            "number": 100,
            "time": 0,
            "value": 0
          },
          {
            "number": 100,
            "time": 77.333372,
            "value": 0
          },
          {
            "number": 100,
            "time": 77.34031644791666,
            "value": 0
          },
          {
            "number": 100,
            "time": 77.34031644791666,
            "value": 0
          }
        ],
        "101": [
          {
            "number": 101,
            "time": 0,
            "value": 0
          },
          {
            "number": 101,
            "time": 0,
            "value": 0
          },
          {
            "number": 101,
            "time": 77.333372,
            "value": 0
          },
          {
            "number": 101,
            "time": 77.34031644791666,
            "value": 0
          },
          {
            "number": 101,
            "time": 77.34031644791666,
            "value": 0
          }
        ]
      },
      "id": 6,
      "name": "cprato.com",
      "instrumentNumber": 0,
      "instrument": "acoustic grand piano",
      "instrumentFamily": "piano",
      "channelNumber": 0,
      "isPercussion": false
    }
  ]
}