{
  "header": {
    "PPQ": 96,
    "timeSignature": [
      4,
      4
    ],
    "bpm": 96.99995311668933,
    "name": "Alan Walker - Alone"
  },
  "tempo": [
    {
      "absoluteTime": 0,
      "seconds": 0,
      "bpm": 96.99995311668933
    }
  ],
  "timeSignature": [
    {
      "absoluteTime": 0,
      "seconds": 0,
      "numerator": 4,
      "denominator": 2,
      "click": 24,
      "notesQ": 8
    }
  ],
  "startTime": 0,
  "duration": 40.051565749999995,
  "tracks": [
    {
      "startTime": 0,
      "duration": 0,
      "length": 0,
      "notes": [],
      "controlChanges": {},
      "id": 0
    },
    {
      "startTime": 0,
      "duration": 0,
      "length": 0,
      "notes": [],
      "controlChanges": {},
      "id": 1
    },
    {
      "startTime": 0,
      "duration": 39.53610158333339,
      "length": 140,
      "notes": [
        {
          "name": "G4",
          "midi": 67,
          "time": 0,
          "velocity": 0.7874015748031497,
          "duration": 0.3092785
        },
        {
          "name": "D4",
          "midi": 62,
          "time": 0.46391775,
          "velocity": 0.7874015748031497,
          "duration": 0.3092785
        },
        {
          "name": "F4",
          "midi": 65,
          "time": 0.9278355,
          "velocity": 0.7874015748031497,
          "duration": 0.3092785
        },
        {
          "name": "D5",
          "midi": 74,
          "time": 1.237114,
          "velocity": 0.7874015748031497,
          "duration": 0.15463925
        },
        {
          "name": "C5",
          "midi": 72,
          "time": 1.4432996666666666,
          "velocity": 0.7874015748031497,
          "duration": 0.10309283333333341
        },
        {
          "name": "D5",
          "midi": 74,
          "time": 1.5463925,
          "velocity": 0.7874015748031497,
          "duration": 0.15463925
        },
        {
          "name": "C5",
          "midi": 72,
          "time": 1.7525781666666667,
          "velocity": 0.7874015748031497,
          "duration": 0.10309283333333341
        },
        {
          "name": "D5",
          "midi": 74,
          "time": 1.855671,
          "velocity": 0.7874015748031497,
          "duration": 0.15463924999999978
        },
        {
          "name": "A#4",
          "midi": 70,
          "time": 2.1649494999999996,
          "velocity": 0.7874015748031497,
          "duration": 0.20618566666666682
        },
        {
          "name": "G4",
          "midi": 67,
          "time": 2.4742279999999996,
          "velocity": 0.7874015748031497,
          "duration": 0.3092785
        },
        {
          "name": "D#4",
          "midi": 63,
          "time": 2.9381457499999994,
          "velocity": 0.7874015748031497,
          "duration": 0.3092785
        },
        {
          "name": "F4",
          "midi": 65,
          "time": 3.4020634999999997,
          "velocity": 0.7874015748031497,
          "duration": 0.3092785
        },
        {
          "name": "D#5",
          "midi": 75,
          "time": 3.7113419999999997,
          "velocity": 0.7874015748031497,
          "duration": 0.15463925000000023
        },
        {
          "name": "D5",
          "midi": 74,
          "time": 3.9175276666666665,
          "velocity": 0.7874015748031497,
          "duration": 0.10309283333333319
        },
        {
          "name": "D#5",
          "midi": 75,
          "time": 4.0206205,
          "velocity": 0.7874015748031497,
          "duration": 0.15463924999999978
        },
        {
          "name": "D5",
          "midi": 74,
          "time": 4.226806166666666,
          "velocity": 0.7874015748031497,
          "duration": 0.10309283333333319
        },
        {
          "name": "C5",
          "midi": 72,
          "time": 4.329898999999999,
          "velocity": 0.7874015748031497,
          "duration": 0.20618566666666638
        },
        {
          "name": "A#4",
          "midi": 70,
          "time": 4.639177499999999,
          "velocity": 0.7874015748031497,
          "duration": 0.20618566666666638
        },
        {
          "name": "F4",
          "midi": 65,
          "time": 4.948455999999998,
          "velocity": 0.7874015748031497,
          "duration": 0.30927849999999957
        },
        {
          "name": "D4",
          "midi": 62,
          "time": 5.412373749999998,
          "velocity": 0.7874015748031497,
          "duration": 0.30927850000000046
        },
        {
          "name": "F4",
          "midi": 65,
          "time": 5.876291499999998,
          "velocity": 0.7874015748031497,
          "duration": 0.30927850000000046
        },
        {
          "name": "D5",
          "midi": 74,
          "time": 6.1855699999999985,
          "velocity": 0.7874015748031497,
          "duration": 0.15463924999999978
        },
        {
          "name": "C5",
          "midi": 72,
          "time": 6.391755666666665,
          "velocity": 0.7874015748031497,
          "duration": 0.10309283333333319
        },
        {
          "name": "D5",
          "midi": 74,
          "time": 6.494848499999998,
          "velocity": 0.7874015748031497,
          "duration": 0.15463924999999978
        },
        {
          "name": "C5",
          "midi": 72,
          "time": 6.701034166666664,
          "velocity": 0.7874015748031497,
          "duration": 0.10309283333333319
        },
        {
          "name": "D5",
          "midi": 74,
          "time": 6.804126999999998,
          "velocity": 0.7874015748031497,
          "duration": 0.257732083333333
        },
        {
          "name": "A#4",
          "midi": 70,
          "time": 7.113405499999997,
          "velocity": 0.7874015748031497,
          "duration": 0.257732083333333
        },
        {
          "name": "F4",
          "midi": 65,
          "time": 7.422683999999997,
          "velocity": 0.7874015748031497,
          "duration": 0.30927849999999957
        },
        {
          "name": "D4",
          "midi": 62,
          "time": 7.886601749999996,
          "velocity": 0.7874015748031497,
          "duration": 0.30927850000000046
        },
        {
          "name": "F4",
          "midi": 65,
          "time": 8.350519499999997,
          "velocity": 0.7874015748031497,
          "duration": 0.30927849999999957
        },
        {
          "name": "A#4",
          "midi": 70,
          "time": 8.865983666666663,
          "velocity": 0.7874015748031497,
          "duration": 0.10309283333333319
        },
        {
          "name": "C5",
          "midi": 72,
          "time": 8.969076499999996,
          "velocity": 0.7874015748031497,
          "duration": 0.20618566666666638
        },
        {
          "name": "A#4",
          "midi": 70,
          "time": 9.175262166666663,
          "velocity": 0.7874015748031497,
          "duration": 0.10309283333333319
        },
        {
          "name": "C5",
          "midi": 72,
          "time": 9.278354999999996,
          "velocity": 0.7874015748031497,
          "duration": 0.25773208333333386
        },
        {
          "name": "F4",
          "midi": 65,
          "time": 9.587633499999997,
          "velocity": 0.7874015748031497,
          "duration": 0.25773208333333386
        },
        {
          "name": "A#4",
          "midi": 70,
          "time": 9.896911999999999,
          "velocity": 0.7874015748031497,
          "duration": 0.30927849999999957
        },
        {
          "name": "A4",
          "midi": 69,
          "time": 10.360829749999999,
          "velocity": 0.7874015748031497,
          "duration": 0.30927849999999957
        },
        {
          "name": "D4",
          "midi": 62,
          "time": 10.824747499999999,
          "velocity": 0.7874015748031497,
          "duration": 0.30927849999999957
        },
        {
          "name": "D5",
          "midi": 74,
          "time": 11.134025999999999,
          "velocity": 0.7874015748031497,
          "duration": 0.20618566666666638
        },
        {
          "name": "C5",
          "midi": 72,
          "time": 11.340211666666665,
          "velocity": 0.7874015748031497,
          "duration": 0.10309283333333319
        },
        {
          "name": "D5",
          "midi": 74,
          "time": 11.443304499999998,
          "velocity": 0.7874015748031497,
          "duration": 0.20618566666666638
        },
        {
          "name": "C5",
          "midi": 72,
          "time": 11.649490166666665,
          "velocity": 0.7874015748031497,
          "duration": 0.10309283333333319
        },
        {
          "name": "A4",
          "midi": 69,
          "time": 11.752582999999998,
          "velocity": 0.7874015748031497,
          "duration": 0.25773208333333386
        },
        {
          "name": "A#4",
          "midi": 70,
          "time": 12.0618615,
          "velocity": 0.7874015748031497,
          "duration": 0.25773208333333386
        },
        {
          "name": "D#5",
          "midi": 75,
          "time": 12.37114,
          "velocity": 0.7874015748031497,
          "duration": 0.25773208333333386
        },
        {
          "name": "D5",
          "midi": 74,
          "time": 12.83505775,
          "velocity": 0.7874015748031497,
          "duration": 0.25773208333333386
        },
        {
          "name": "A#4",
          "midi": 70,
          "time": 13.298975500000001,
          "velocity": 0.7874015748031497,
          "duration": 0.25773208333333386
        },
        {
          "name": "D#5",
          "midi": 75,
          "time": 13.608254000000002,
          "velocity": 0.7874015748031497,
          "duration": 0.20618566666666638
        },
        {
          "name": "D5",
          "midi": 74,
          "time": 13.814439666666669,
          "velocity": 0.7874015748031497,
          "duration": 0.10309283333333319
        },
        {
          "name": "D#5",
          "midi": 75,
          "time": 13.917532500000002,
          "velocity": 0.7874015748031497,
          "duration": 0.20618566666666638
        },
        {
          "name": "D5",
          "midi": 74,
          "time": 14.123718166666668,
          "velocity": 0.7874015748031497,
          "duration": 0.10309283333333319
        },
        {
          "name": "C5",
          "midi": 72,
          "time": 14.226811000000001,
          "velocity": 0.7874015748031497,
          "duration": 0.25773208333333386
        },
        {
          "name": "D5",
          "midi": 74,
          "time": 14.536089500000003,
          "velocity": 0.7874015748031497,
          "duration": 0.25773208333333386
        },
        {
          "name": "F4",
          "midi": 65,
          "time": 14.845368000000004,
          "velocity": 0.7874015748031497,
          "duration": 0.30927849999999957
        },
        {
          "name": "A#4",
          "midi": 70,
          "time": 15.309285750000004,
          "velocity": 0.7874015748031497,
          "duration": 0.30927849999999957
        },
        {
          "name": "A#4",
          "midi": 70,
          "time": 15.773203500000005,
          "velocity": 0.7874015748031497,
          "duration": 0.30927850000000134
        },
        {
          "name": "D5",
          "midi": 74,
          "time": 16.082482000000006,
          "velocity": 0.7874015748031497,
          "duration": 0.20618566666666638
        },
        {
          "name": "C5",
          "midi": 72,
          "time": 16.288667666666672,
          "velocity": 0.7874015748031497,
          "duration": 0.10309283333333497
        },
        {
          "name": "D5",
          "midi": 74,
          "time": 16.391760500000007,
          "velocity": 0.7874015748031497,
          "duration": 0.20618566666666638
        },
        {
          "name": "C5",
          "midi": 72,
          "time": 16.597946166666674,
          "velocity": 0.7874015748031497,
          "duration": 0.10309283333333497
        },
        {
          "name": "C5",
          "midi": 72,
          "time": 16.70103900000001,
          "velocity": 0.7874015748031497,
          "duration": 0.25773208333333386
        },
        {
          "name": "F4",
          "midi": 65,
          "time": 17.01031750000001,
          "velocity": 0.7874015748031497,
          "duration": 0.25773208333333386
        },
        {
          "name": "A4",
          "midi": 69,
          "time": 17.31959600000001,
          "velocity": 0.7874015748031497,
          "duration": 0.30927850000000134
        },
        {
          "name": "A#4",
          "midi": 70,
          "time": 17.78351375000001,
          "velocity": 0.7874015748031497,
          "duration": 0.30927850000000134
        },
        {
          "name": "C5",
          "midi": 72,
          "time": 18.247431500000012,
          "velocity": 0.7874015748031497,
          "duration": 0.30927850000000134
        },
        {
          "name": "A#4",
          "midi": 70,
          "time": 18.76289566666668,
          "velocity": 0.7874015748031497,
          "duration": 0.10309283333333497
        },
        {
          "name": "C5",
          "midi": 72,
          "time": 18.865988500000014,
          "velocity": 0.7874015748031497,
          "duration": 0.20618566666666638
        },
        {
          "name": "A#4",
          "midi": 70,
          "time": 19.07217416666668,
          "velocity": 0.7874015748031497,
          "duration": 0.10309283333333497
        },
        {
          "name": "A4",
          "midi": 69,
          "time": 19.175267000000016,
          "velocity": 0.7874015748031497,
          "duration": 0.25773208333333386
        },
        {
          "name": "F4",
          "midi": 65,
          "time": 19.484545500000017,
          "velocity": 0.7874015748031497,
          "duration": 0.25773208333333386
        },
        {
          "name": "G4",
          "midi": 67,
          "time": 19.79382400000002,
          "velocity": 0.7874015748031497,
          "duration": 0.30927850000000134
        },
        {
          "name": "D4",
          "midi": 62,
          "time": 20.25774175000002,
          "velocity": 0.7874015748031497,
          "duration": 0.30927850000000134
        },
        {
          "name": "F4",
          "midi": 65,
          "time": 20.72165950000002,
          "velocity": 0.7874015748031497,
          "duration": 0.30927850000000134
        },
        {
          "name": "D5",
          "midi": 74,
          "time": 21.03093800000002,
          "velocity": 0.7874015748031497,
          "duration": 0.1546392499999989
        },
        {
          "name": "C5",
          "midi": 72,
          "time": 21.237123666666687,
          "velocity": 0.7874015748031497,
          "duration": 0.10309283333333497
        },
        {
          "name": "D5",
          "midi": 74,
          "time": 21.34021650000002,
          "velocity": 0.7874015748031497,
          "duration": 0.1546392499999989
        },
        {
          "name": "C5",
          "midi": 72,
          "time": 21.546402166666688,
          "velocity": 0.7874015748031497,
          "duration": 0.10309283333333497
        },
        {
          "name": "D5",
          "midi": 74,
          "time": 21.649495000000023,
          "velocity": 0.7874015748031497,
          "duration": 0.1546392499999989
        },
        {
          "name": "A#4",
          "midi": 70,
          "time": 21.95877350000002,
          "velocity": 0.7874015748031497,
          "duration": 0.20618566666666638
        },
        {
          "name": "G4",
          "midi": 67,
          "time": 22.268052000000022,
          "velocity": 0.7874015748031497,
          "duration": 0.30927850000000134
        },
        {
          "name": "D#4",
          "midi": 63,
          "time": 22.731969750000022,
          "velocity": 0.7874015748031497,
          "duration": 0.30927850000000134
        },
        {
          "name": "F4",
          "midi": 65,
          "time": 23.195887500000023,
          "velocity": 0.7874015748031497,
          "duration": 0.30927850000000134
        },
        {
          "name": "D#5",
          "midi": 75,
          "time": 23.505166000000024,
          "velocity": 0.7874015748031497,
          "duration": 0.1546392499999989
        },
        {
          "name": "D5",
          "midi": 74,
          "time": 23.71135166666669,
          "velocity": 0.7874015748031497,
          "duration": 0.10309283333333497
        },
        {
          "name": "D#5",
          "midi": 75,
          "time": 23.814444500000025,
          "velocity": 0.7874015748031497,
          "duration": 0.1546392499999989
        },
        {
          "name": "D5",
          "midi": 74,
          "time": 24.02063016666669,
          "velocity": 0.7874015748031497,
          "duration": 0.10309283333333497
        },
        {
          "name": "C5",
          "midi": 72,
          "time": 24.123723000000027,
          "velocity": 0.7874015748031497,
          "duration": 0.20618566666666638
        },
        {
          "name": "A#4",
          "midi": 70,
          "time": 24.433001500000028,
          "velocity": 0.7874015748031497,
          "duration": 0.20618566666666638
        },
        {
          "name": "F4",
          "midi": 65,
          "time": 24.74228000000003,
          "velocity": 0.7874015748031497,
          "duration": 0.30927850000000134
        },
        {
          "name": "D4",
          "midi": 62,
          "time": 25.20619775000003,
          "velocity": 0.7874015748031497,
          "duration": 0.30927850000000134
        },
        {
          "name": "F4",
          "midi": 65,
          "time": 25.67011550000003,
          "velocity": 0.7874015748031497,
          "duration": 0.30927850000000134
        },
        {
          "name": "D5",
          "midi": 74,
          "time": 25.97939400000003,
          "velocity": 0.7874015748031497,
          "duration": 0.1546392499999989
        },
        {
          "name": "C5",
          "midi": 72,
          "time": 26.185579666666698,
          "velocity": 0.7874015748031497,
          "duration": 0.10309283333333497
        },
        {
          "name": "D5",
          "midi": 74,
          "time": 26.288672500000033,
          "velocity": 0.7874015748031497,
          "duration": 0.1546392499999989
        },
        {
          "name": "C5",
          "midi": 72,
          "time": 26.4948581666667,
          "velocity": 0.7874015748031497,
          "duration": 0.10309283333333497
        },
        {
          "name": "D5",
          "midi": 74,
          "time": 26.597951000000034,
          "velocity": 0.7874015748031497,
          "duration": 0.25773208333333386
        },
        {
          "name": "A#4",
          "midi": 70,
          "time": 26.907229500000035,
          "velocity": 0.7874015748031497,
          "duration": 0.25773208333333386
        },
        {
          "name": "F4",
          "midi": 65,
          "time": 27.216508000000037,
          "velocity": 0.7874015748031497,
          "duration": 0.30927850000000134
        },
        {
          "name": "D4",
          "midi": 62,
          "time": 27.680425750000037,
          "velocity": 0.7874015748031497,
          "duration": 0.30927850000000134
        },
        {
          "name": "F4",
          "midi": 65,
          "time": 28.144343500000037,
          "velocity": 0.7874015748031497,
          "duration": 0.30927850000000134
        },
        {
          "name": "A#4",
          "midi": 70,
          "time": 28.659807666666705,
          "velocity": 0.7874015748031497,
          "duration": 0.10309283333333497
        },
        {
          "name": "C5",
          "midi": 72,
          "time": 28.76290050000004,
          "velocity": 0.7874015748031497,
          "duration": 0.20618566666666638
        },
        {
          "name": "A#4",
          "midi": 70,
          "time": 28.969086166666706,
          "velocity": 0.7874015748031497,
          "duration": 0.10309283333333497
        },
        {
          "name": "C5",
          "midi": 72,
          "time": 29.07217900000004,
          "velocity": 0.7874015748031497,
          "duration": 0.25773208333333386
        },
        {
          "name": "F4",
          "midi": 65,
          "time": 29.381457500000042,
          "velocity": 0.7874015748031497,
          "duration": 0.25773208333333386
        },
        {
          "name": "A#4",
          "midi": 70,
          "time": 29.690736000000044,
          "velocity": 0.7874015748031497,
          "duration": 0.30927850000000134
        },
        {
          "name": "A4",
          "midi": 69,
          "time": 30.154653750000044,
          "velocity": 0.7874015748031497,
          "duration": 0.30927850000000134
        },
        {
          "name": "D4",
          "midi": 62,
          "time": 30.618571500000044,
          "velocity": 0.7874015748031497,
          "duration": 0.30927850000000134
        },
        {
          "name": "D5",
          "midi": 74,
          "time": 30.927850000000046,
          "velocity": 0.7874015748031497,
          "duration": 0.20618566666666638
        },
        {
          "name": "C5",
          "midi": 72,
          "time": 31.134035666666712,
          "velocity": 0.7874015748031497,
          "duration": 0.10309283333333497
        },
        {
          "name": "D5",
          "midi": 74,
          "time": 31.237128500000047,
          "velocity": 0.7874015748031497,
          "duration": 0.20618566666666638
        },
        {
          "name": "C5",
          "midi": 72,
          "time": 31.443314166666713,
          "velocity": 0.7874015748031497,
          "duration": 0.10309283333333497
        },
        {
          "name": "A4",
          "midi": 69,
          "time": 31.54640700000005,
          "velocity": 0.7874015748031497,
          "duration": 0.25773208333333386
        },
        {
          "name": "A#4",
          "midi": 70,
          "time": 31.85568550000005,
          "velocity": 0.7874015748031497,
          "duration": 0.2577320833333303
        },
        {
          "name": "D#5",
          "midi": 75,
          "time": 32.16496400000005,
          "velocity": 0.7874015748031497,
          "duration": 0.2577320833333303
        },
        {
          "name": "D5",
          "midi": 74,
          "time": 32.62888175000005,
          "velocity": 0.7874015748031497,
          "duration": 0.2577320833333303
        },
        {
          "name": "A#4",
          "midi": 70,
          "time": 33.09279950000005,
          "velocity": 0.7874015748031497,
          "duration": 0.2577320833333303
        },
        {
          "name": "D#5",
          "midi": 75,
          "time": 33.402078000000046,
          "velocity": 0.7874015748031497,
          "duration": 0.20618566666666993
        },
        {
          "name": "D5",
          "midi": 74,
          "time": 33.608263666666716,
          "velocity": 0.7874015748031497,
          "duration": 0.10309283333333497
        },
        {
          "name": "D#5",
          "midi": 75,
          "time": 33.71135650000005,
          "velocity": 0.7874015748031497,
          "duration": 0.20618566666666993
        },
        {
          "name": "D5",
          "midi": 74,
          "time": 33.91754216666672,
          "velocity": 0.7874015748031497,
          "duration": 0.10309283333333497
        },
        {
          "name": "C5",
          "midi": 72,
          "time": 34.020635000000055,
          "velocity": 0.7874015748031497,
          "duration": 0.2577320833333303
        },
        {
          "name": "D5",
          "midi": 74,
          "time": 34.32991350000005,
          "velocity": 0.7874015748031497,
          "duration": 0.2577320833333303
        },
        {
          "name": "F4",
          "midi": 65,
          "time": 34.63919200000005,
          "velocity": 0.7874015748031497,
          "duration": 0.3092784999999978
        },
        {
          "name": "A#4",
          "midi": 70,
          "time": 35.10310975000005,
          "velocity": 0.7874015748031497,
          "duration": 0.3092784999999978
        },
        {
          "name": "A#4",
          "midi": 70,
          "time": 35.56702750000005,
          "velocity": 0.7874015748031497,
          "duration": 0.3092784999999978
        },
        {
          "name": "D5",
          "midi": 74,
          "time": 35.87630600000005,
          "velocity": 0.7874015748031497,
          "duration": 0.20618566666666993
        },
        {
          "name": "C5",
          "midi": 72,
          "time": 36.08249166666672,
          "velocity": 0.7874015748031497,
          "duration": 0.10309283333333497
        },
        {
          "name": "D5",
          "midi": 74,
          "time": 36.185584500000054,
          "velocity": 0.7874015748031497,
          "duration": 0.20618566666666993
        },
        {
          "name": "C5",
          "midi": 72,
          "time": 36.391770166666724,
          "velocity": 0.7874015748031497,
          "duration": 0.10309283333333497
        },
        {
          "name": "C5",
          "midi": 72,
          "time": 36.49486300000006,
          "velocity": 0.7874015748031497,
          "duration": 0.2577320833333303
        },
        {
          "name": "F4",
          "midi": 65,
          "time": 36.80414150000006,
          "velocity": 0.7874015748031497,
          "duration": 0.2577320833333303
        },
        {
          "name": "A4",
          "midi": 69,
          "time": 37.113420000000055,
          "velocity": 0.7874015748031497,
          "duration": 0.3092784999999978
        },
        {
          "name": "A#4",
          "midi": 70,
          "time": 37.577337750000055,
          "velocity": 0.7874015748031497,
          "duration": 0.3092784999999978
        },
        {
          "name": "C5",
          "midi": 72,
          "time": 38.041255500000055,
          "velocity": 0.7874015748031497,
          "duration": 0.3092784999999978
        },
        {
          "name": "A#4",
          "midi": 70,
          "time": 38.55671966666672,
          "velocity": 0.7874015748031497,
          "duration": 0.10309283333333497
        },
        {
          "name": "C5",
          "midi": 72,
          "time": 38.65981250000006,
          "velocity": 0.7874015748031497,
          "duration": 0.20618566666666993
        },
        {
          "name": "A#4",
          "midi": 70,
          "time": 38.86599816666673,
          "velocity": 0.7874015748031497,
          "duration": 0.10309283333333497
        },
        {
          "name": "A4",
          "midi": 69,
          "time": 38.96909100000006,
          "velocity": 0.7874015748031497,
          "duration": 0.2577320833333303
        },
        {
          "name": "F4",
          "midi": 65,
          "time": 39.27836950000006,
          "velocity": 0.7874015748031497,
          "duration": 0.2577320833333303
        }
      ],
      "controlChanges": {
        "6": [
          {
            "number": 6,
            "time": 0,
            "value": 0.09448818897637795
          },
          {
            "number": 6,
            "time": 0,
            "value": 0.09448818897637795
          },
          {
            "number": 6,
            "time": 0,
            "value": 0.09448818897637795
          },
          {
            "number": 6,
            "time": 42.061876000000055,
            "value": 0.09448818897637795
          },
          {
            "number": 6,
            "time": 42.06831930208339,
            "value": 0.09448818897637795
          },
          {
            "number": 6,
            "time": 42.06831930208339,
            "value": 0.09448818897637795
          }
        ],
        "7": [
          {
            "number": 7,
            "time": 0,
            "value": 0.7874015748031497
          },
          {
            "number": 7,
            "time": 0,
            "value": 0.7874015748031497
          },
          {
            "number": 7,
            "time": 0,
            "value": 0.7874015748031497
          },
          {
            "number": 7,
            "time": 0,
            "value": 0.7874015748031497
          },
          {
            "number": 7,
            "time": 42.061876000000055,
            "value": 0.7874015748031497
          },
          {
            "number": 7,
            "time": 42.06831930208339,
            "value": 0.7874015748031497
          },
          {
            "number": 7,
            "time": 42.06831930208339,
            "value": 0.7874015748031497
          }
        ],
        "10": [
          {
            "number": 10,
            "time": 0,
            "value": 0.5039370078740157
          },
          {
            "number": 10,
            "time": 0,
            "value": 0.5039370078740157
          },
          {
            "number": 10,
            "time": 0,
            "value": 0.5039370078740157
          },
          {
            "number": 10,
            "time": 0,
            "value": 0.5039370078740157
          },
          {
            "number": 10,
            "time": 42.061876000000055,
            "value": 0.5039370078740157
          },
          {
            "number": 10,
            "time": 42.06831930208339,
            "value": 0.5039370078740157
          },
          {
            "number": 10,
            "time": 42.06831930208339,
            "value": 0.5039370078740157
          }
        ],
        "100": [
          {
            "number": 100,
            "time": 0,
            "value": 0
          },
          {
            "number": 100,
            "time": 0,
            "value": 0
          },
          {
            "number": 100,
            "time": 0,
            "value": 0
          },
          {
            "number": 100,
            "time": 42.061876000000055,
            "value": 0
          },
          {
            "number": 100,
            "time": 42.06831930208339,
            "value": 0
          },
          {
            "number": 100,
            "time": 42.06831930208339,
            "value": 0
          }
        ],
        "101": [
          {
            "number": 101,
            "time": 0,
            "value": 0
          },
          {
            "number": 101,
            "time": 0,
            "value": 0
          },
          {
            "number": 101,
            "time": 0,
            "value": 0
          },
          {
            "number": 101,
            "time": 42.061876000000055,
            "value": 0
          },
          {
            "number": 101,
            "time": 42.06831930208339,
            "value": 0
          },
          {
            "number": 101,
            "time": 42.06831930208339,
            "value": 0
          }
        ]
      },
      "id": 2,
      "name": "Lead",
      "instrumentNumber": 81,
      "instrument": "lead 2 (sawtooth)",
      "instrumentFamily": "synth lead",
      "channelNumber": 7,
      "isPercussion": false
    },
    {
      "startTime": 0,
      "duration": 39.587648000000065,
      "length": 128,
      "notes": [
        {
          "name": "G2",
          "midi": 43,
          "time": 0,
          "velocity": 0.7874015748031497,
          "duration": 0.3092785
        },
        {
          "name": "G2",
          "midi": 43,
          "time": 0.46391775,
          "velocity": 0.7874015748031497,
          "duration": 0.3092785
        },
        {
          "name": "G2",
          "midi": 43,
          "time": 0.9278355,
          "velocity": 0.7874015748031497,
          "duration": 0.3092785
        },
        {
          "name": "G2",
          "midi": 43,
          "time": 1.4432996666666666,
          "velocity": 0.7874015748031497,
          "duration": 0.051546416666666595
        },
        {
          "name": "G2",
          "midi": 43,
          "time": 1.5463924999999998,
          "velocity": 0.7874015748031497,
          "duration": 0.15463925
        },
        {
          "name": "G2",
          "midi": 43,
          "time": 1.7525781666666664,
          "velocity": 0.7874015748031497,
          "duration": 0.051546416666666595
        },
        {
          "name": "G2",
          "midi": 43,
          "time": 1.8556709999999996,
          "velocity": 0.7874015748031497,
          "duration": 0.15463925000000023
        },
        {
          "name": "G2",
          "midi": 43,
          "time": 2.1649494999999996,
          "velocity": 0.7874015748031497,
          "duration": 0.3092785
        },
        {
          "name": "D#2",
          "midi": 39,
          "time": 2.4742279999999996,
          "velocity": 0.7874015748031497,
          "duration": 0.3092785
        },
        {
          "name": "D#2",
          "midi": 39,
          "time": 2.9381457499999994,
          "velocity": 0.7874015748031497,
          "duration": 0.3092785
        },
        {
          "name": "D#2",
          "midi": 39,
          "time": 3.4020634999999997,
          "velocity": 0.7874015748031497,
          "duration": 0.3092785
        },
        {
          "name": "D#2",
          "midi": 39,
          "time": 3.9175276666666665,
          "velocity": 0.7874015748031497,
          "duration": 0.051546416666666595
        },
        {
          "name": "D#2",
          "midi": 39,
          "time": 4.0206205,
          "velocity": 0.7874015748031497,
          "duration": 0.15463924999999978
        },
        {
          "name": "D#2",
          "midi": 39,
          "time": 4.226806166666666,
          "velocity": 0.7874015748031497,
          "duration": 0.051546416666666595
        },
        {
          "name": "D#2",
          "midi": 39,
          "time": 4.329898999999999,
          "velocity": 0.7874015748031497,
          "duration": 0.15463924999999978
        },
        {
          "name": "D#2",
          "midi": 39,
          "time": 4.639177499999999,
          "velocity": 0.7874015748031497,
          "duration": 0.30927849999999957
        },
        {
          "name": "A#2",
          "midi": 46,
          "time": 4.948455999999998,
          "velocity": 0.7874015748031497,
          "duration": 0.30927849999999957
        },
        {
          "name": "A#2",
          "midi": 46,
          "time": 5.412373749999998,
          "velocity": 0.7874015748031497,
          "duration": 0.30927850000000046
        },
        {
          "name": "A#2",
          "midi": 46,
          "time": 5.876291499999998,
          "velocity": 0.7874015748031497,
          "duration": 0.30927850000000046
        },
        {
          "name": "A#2",
          "midi": 46,
          "time": 6.391755666666665,
          "velocity": 0.7874015748031497,
          "duration": 0.051546416666666595
        },
        {
          "name": "A#2",
          "midi": 46,
          "time": 6.494848499999998,
          "velocity": 0.7874015748031497,
          "duration": 0.15463924999999978
        },
        {
          "name": "A#2",
          "midi": 46,
          "time": 6.701034166666664,
          "velocity": 0.7874015748031497,
          "duration": 0.051546416666666595
        },
        {
          "name": "A#2",
          "midi": 46,
          "time": 6.804126999999998,
          "velocity": 0.7874015748031497,
          "duration": 0.15463924999999978
        },
        {
          "name": "A#2",
          "midi": 46,
          "time": 7.113405499999997,
          "velocity": 0.7874015748031497,
          "duration": 0.30927849999999957
        },
        {
          "name": "F2",
          "midi": 41,
          "time": 7.422683999999997,
          "velocity": 0.7874015748031497,
          "duration": 0.30927849999999957
        },
        {
          "name": "F2",
          "midi": 41,
          "time": 7.886601749999996,
          "velocity": 0.7874015748031497,
          "duration": 0.30927850000000046
        },
        {
          "name": "F2",
          "midi": 41,
          "time": 8.350519499999997,
          "velocity": 0.7874015748031497,
          "duration": 0.30927849999999957
        },
        {
          "name": "F2",
          "midi": 41,
          "time": 8.865983666666663,
          "velocity": 0.7874015748031497,
          "duration": 0.05154641666666748
        },
        {
          "name": "F2",
          "midi": 41,
          "time": 8.969076499999998,
          "velocity": 0.7874015748031497,
          "duration": 0.15463925000000067
        },
        {
          "name": "F2",
          "midi": 41,
          "time": 9.175262166666666,
          "velocity": 0.7874015748031497,
          "duration": 0.05154641666666748
        },
        {
          "name": "F2",
          "midi": 41,
          "time": 9.278355000000001,
          "velocity": 0.7874015748031497,
          "duration": 0.15463925000000067
        },
        {
          "name": "F2",
          "midi": 41,
          "time": 9.587633500000003,
          "velocity": 0.7874015748031497,
          "duration": 0.30927849999999957
        },
        {
          "name": "G2",
          "midi": 43,
          "time": 9.896912000000002,
          "velocity": 0.7874015748031497,
          "duration": 0.30927849999999957
        },
        {
          "name": "G2",
          "midi": 43,
          "time": 10.360829750000002,
          "velocity": 0.7874015748031497,
          "duration": 0.30927849999999957
        },
        {
          "name": "G2",
          "midi": 43,
          "time": 10.824747500000003,
          "velocity": 0.7874015748031497,
          "duration": 0.30927849999999957
        },
        {
          "name": "G2",
          "midi": 43,
          "time": 11.340211666666669,
          "velocity": 0.7874015748031497,
          "duration": 0.05154641666666748
        },
        {
          "name": "G2",
          "midi": 43,
          "time": 11.443304500000004,
          "velocity": 0.7874015748031497,
          "duration": 0.15463925000000067
        },
        {
          "name": "G2",
          "midi": 43,
          "time": 11.649490166666672,
          "velocity": 0.7874015748031497,
          "duration": 0.05154641666666748
        },
        {
          "name": "G2",
          "midi": 43,
          "time": 11.752583000000007,
          "velocity": 0.7874015748031497,
          "duration": 0.15463925000000067
        },
        {
          "name": "G2",
          "midi": 43,
          "time": 12.061861500000008,
          "velocity": 0.7874015748031497,
          "duration": 0.30927849999999957
        },
        {
          "name": "D#2",
          "midi": 39,
          "time": 12.371140000000008,
          "velocity": 0.7874015748031497,
          "duration": 0.30927849999999957
        },
        {
          "name": "D#2",
          "midi": 39,
          "time": 12.835057750000008,
          "velocity": 0.7874015748031497,
          "duration": 0.30927849999999957
        },
        {
          "name": "D#2",
          "midi": 39,
          "time": 13.298975500000008,
          "velocity": 0.7874015748031497,
          "duration": 0.30927849999999957
        },
        {
          "name": "D#2",
          "midi": 39,
          "time": 13.814439666666674,
          "velocity": 0.7874015748031497,
          "duration": 0.05154641666666748
        },
        {
          "name": "D#2",
          "midi": 39,
          "time": 13.917532500000009,
          "velocity": 0.7874015748031497,
          "duration": 0.15463925000000067
        },
        {
          "name": "D#2",
          "midi": 39,
          "time": 14.123718166666677,
          "velocity": 0.7874015748031497,
          "duration": 0.05154641666666748
        },
        {
          "name": "D#2",
          "midi": 39,
          "time": 14.226811000000012,
          "velocity": 0.7874015748031497,
          "duration": 0.15463925000000067
        },
        {
          "name": "D#2",
          "midi": 39,
          "time": 14.536089500000013,
          "velocity": 0.7874015748031497,
          "duration": 0.30927849999999957
        },
        {
          "name": "A#2",
          "midi": 46,
          "time": 14.845368000000013,
          "velocity": 0.7874015748031497,
          "duration": 0.30927849999999957
        },
        {
          "name": "A#2",
          "midi": 46,
          "time": 15.309285750000013,
          "velocity": 0.7874015748031497,
          "duration": 0.30927849999999957
        },
        {
          "name": "A#2",
          "midi": 46,
          "time": 15.773203500000013,
          "velocity": 0.7874015748031497,
          "duration": 0.30927849999999957
        },
        {
          "name": "A#2",
          "midi": 46,
          "time": 16.28866766666668,
          "velocity": 0.7874015748031497,
          "duration": 0.05154641666666748
        },
        {
          "name": "A#2",
          "midi": 46,
          "time": 16.391760500000014,
          "velocity": 0.7874015748031497,
          "duration": 0.1546392499999989
        },
        {
          "name": "A#2",
          "midi": 46,
          "time": 16.59794616666668,
          "velocity": 0.7874015748031497,
          "duration": 0.05154641666666748
        },
        {
          "name": "A#2",
          "midi": 46,
          "time": 16.701039000000016,
          "velocity": 0.7874015748031497,
          "duration": 0.1546392499999989
        },
        {
          "name": "A#2",
          "midi": 46,
          "time": 17.010317500000014,
          "velocity": 0.7874015748031497,
          "duration": 0.30927850000000134
        },
        {
          "name": "F2",
          "midi": 41,
          "time": 17.319596000000015,
          "velocity": 0.7874015748031497,
          "duration": 0.30927850000000134
        },
        {
          "name": "F2",
          "midi": 41,
          "time": 17.783513750000015,
          "velocity": 0.7874015748031497,
          "duration": 0.30927850000000134
        },
        {
          "name": "F2",
          "midi": 41,
          "time": 18.247431500000015,
          "velocity": 0.7874015748031497,
          "duration": 0.30927850000000134
        },
        {
          "name": "F2",
          "midi": 41,
          "time": 18.762895666666683,
          "velocity": 0.7874015748031497,
          "duration": 0.05154641666666748
        },
        {
          "name": "F2",
          "midi": 41,
          "time": 18.865988500000018,
          "velocity": 0.7874015748031497,
          "duration": 0.1546392499999989
        },
        {
          "name": "F2",
          "midi": 41,
          "time": 19.072174166666684,
          "velocity": 0.7874015748031497,
          "duration": 0.05154641666666748
        },
        {
          "name": "F2",
          "midi": 41,
          "time": 19.17526700000002,
          "velocity": 0.7874015748031497,
          "duration": 0.1546392499999989
        },
        {
          "name": "F2",
          "midi": 41,
          "time": 19.484545500000017,
          "velocity": 0.7874015748031497,
          "duration": 0.30927850000000134
        },
        {
          "name": "G2",
          "midi": 43,
          "time": 19.79382400000002,
          "velocity": 0.7874015748031497,
          "duration": 0.30927850000000134
        },
        {
          "name": "G2",
          "midi": 43,
          "time": 20.25774175000002,
          "velocity": 0.7874015748031497,
          "duration": 0.30927850000000134
        },
        {
          "name": "G2",
          "midi": 43,
          "time": 20.72165950000002,
          "velocity": 0.7874015748031497,
          "duration": 0.30927850000000134
        },
        {
          "name": "G2",
          "midi": 43,
          "time": 21.237123666666687,
          "velocity": 0.7874015748031497,
          "duration": 0.05154641666666748
        },
        {
          "name": "G2",
          "midi": 43,
          "time": 21.34021650000002,
          "velocity": 0.7874015748031497,
          "duration": 0.1546392499999989
        },
        {
          "name": "G2",
          "midi": 43,
          "time": 21.546402166666688,
          "velocity": 0.7874015748031497,
          "duration": 0.05154641666666748
        },
        {
          "name": "G2",
          "midi": 43,
          "time": 21.649495000000023,
          "velocity": 0.7874015748031497,
          "duration": 0.1546392499999989
        },
        {
          "name": "G2",
          "midi": 43,
          "time": 21.95877350000002,
          "velocity": 0.7874015748031497,
          "duration": 0.30927850000000134
        },
        {
          "name": "D#2",
          "midi": 39,
          "time": 22.268052000000022,
          "velocity": 0.7874015748031497,
          "duration": 0.30927850000000134
        },
        {
          "name": "D#2",
          "midi": 39,
          "time": 22.731969750000022,
          "velocity": 0.7874015748031497,
          "duration": 0.30927850000000134
        },
        {
          "name": "D#2",
          "midi": 39,
          "time": 23.195887500000023,
          "velocity": 0.7874015748031497,
          "duration": 0.30927850000000134
        },
        {
          "name": "D#2",
          "midi": 39,
          "time": 23.71135166666669,
          "velocity": 0.7874015748031497,
          "duration": 0.05154641666666748
        },
        {
          "name": "D#2",
          "midi": 39,
          "time": 23.814444500000025,
          "velocity": 0.7874015748031497,
          "duration": 0.1546392499999989
        },
        {
          "name": "D#2",
          "midi": 39,
          "time": 24.02063016666669,
          "velocity": 0.7874015748031497,
          "duration": 0.05154641666666748
        },
        {
          "name": "D#2",
          "midi": 39,
          "time": 24.123723000000027,
          "velocity": 0.7874015748031497,
          "duration": 0.1546392499999989
        },
        {
          "name": "D#2",
          "midi": 39,
          "time": 24.433001500000024,
          "velocity": 0.7874015748031497,
          "duration": 0.30927850000000134
        },
        {
          "name": "A#2",
          "midi": 46,
          "time": 24.742280000000026,
          "velocity": 0.7874015748031497,
          "duration": 0.30927850000000134
        },
        {
          "name": "A#2",
          "midi": 46,
          "time": 25.206197750000026,
          "velocity": 0.7874015748031497,
          "duration": 0.30927850000000134
        },
        {
          "name": "A#2",
          "midi": 46,
          "time": 25.670115500000026,
          "velocity": 0.7874015748031497,
          "duration": 0.30927850000000134
        },
        {
          "name": "A#2",
          "midi": 46,
          "time": 26.185579666666694,
          "velocity": 0.7874015748031497,
          "duration": 0.05154641666666748
        },
        {
          "name": "A#2",
          "midi": 46,
          "time": 26.28867250000003,
          "velocity": 0.7874015748031497,
          "duration": 0.1546392499999989
        },
        {
          "name": "A#2",
          "midi": 46,
          "time": 26.494858166666695,
          "velocity": 0.7874015748031497,
          "duration": 0.05154641666666748
        },
        {
          "name": "A#2",
          "midi": 46,
          "time": 26.59795100000003,
          "velocity": 0.7874015748031497,
          "duration": 0.1546392499999989
        },
        {
          "name": "A#2",
          "midi": 46,
          "time": 26.907229500000028,
          "velocity": 0.7874015748031497,
          "duration": 0.30927850000000134
        },
        {
          "name": "F2",
          "midi": 41,
          "time": 27.21650800000003,
          "velocity": 0.7874015748031497,
          "duration": 0.30927850000000134
        },
        {
          "name": "F2",
          "midi": 41,
          "time": 27.68042575000003,
          "velocity": 0.7874015748031497,
          "duration": 0.30927850000000134
        },
        {
          "name": "F2",
          "midi": 41,
          "time": 28.14434350000003,
          "velocity": 0.7874015748031497,
          "duration": 0.30927850000000134
        },
        {
          "name": "F2",
          "midi": 41,
          "time": 28.659807666666698,
          "velocity": 0.7874015748031497,
          "duration": 0.05154641666666748
        },
        {
          "name": "F2",
          "midi": 41,
          "time": 28.762900500000033,
          "velocity": 0.7874015748031497,
          "duration": 0.1546392499999989
        },
        {
          "name": "F2",
          "midi": 41,
          "time": 28.9690861666667,
          "velocity": 0.7874015748031497,
          "duration": 0.05154641666666748
        },
        {
          "name": "F2",
          "midi": 41,
          "time": 29.072179000000034,
          "velocity": 0.7874015748031497,
          "duration": 0.1546392499999989
        },
        {
          "name": "F2",
          "midi": 41,
          "time": 29.38145750000003,
          "velocity": 0.7874015748031497,
          "duration": 0.30927850000000134
        },
        {
          "name": "G2",
          "midi": 43,
          "time": 29.690736000000033,
          "velocity": 0.7874015748031497,
          "duration": 0.30927850000000134
        },
        {
          "name": "G2",
          "midi": 43,
          "time": 30.154653750000033,
          "velocity": 0.7874015748031497,
          "duration": 0.30927850000000134
        },
        {
          "name": "G2",
          "midi": 43,
          "time": 30.618571500000034,
          "velocity": 0.7874015748031497,
          "duration": 0.30927850000000134
        },
        {
          "name": "G2",
          "midi": 43,
          "time": 31.1340356666667,
          "velocity": 0.7874015748031497,
          "duration": 0.05154641666666748
        },
        {
          "name": "G2",
          "midi": 43,
          "time": 31.237128500000036,
          "velocity": 0.7874015748031497,
          "duration": 0.1546392499999989
        },
        {
          "name": "G2",
          "midi": 43,
          "time": 31.443314166666703,
          "velocity": 0.7874015748031497,
          "duration": 0.05154641666666748
        },
        {
          "name": "G2",
          "midi": 43,
          "time": 31.546407000000038,
          "velocity": 0.7874015748031497,
          "duration": 0.1546392499999989
        },
        {
          "name": "G2",
          "midi": 43,
          "time": 31.855685500000035,
          "velocity": 0.7874015748031497,
          "duration": 0.3092784999999978
        },
        {
          "name": "D#2",
          "midi": 39,
          "time": 32.16496400000003,
          "velocity": 0.7874015748031497,
          "duration": 0.3092784999999978
        },
        {
          "name": "D#2",
          "midi": 39,
          "time": 32.62888175000003,
          "velocity": 0.7874015748031497,
          "duration": 0.3092784999999978
        },
        {
          "name": "D#2",
          "midi": 39,
          "time": 33.092799500000034,
          "velocity": 0.7874015748031497,
          "duration": 0.3092784999999978
        },
        {
          "name": "D#2",
          "midi": 39,
          "time": 33.6082636666667,
          "velocity": 0.7874015748031497,
          "duration": 0.05154641666666748
        },
        {
          "name": "D#2",
          "midi": 39,
          "time": 33.711356500000036,
          "velocity": 0.7874015748031497,
          "duration": 0.15463925000000245
        },
        {
          "name": "D#2",
          "midi": 39,
          "time": 33.917542166666706,
          "velocity": 0.7874015748031497,
          "duration": 0.05154641666666748
        },
        {
          "name": "D#2",
          "midi": 39,
          "time": 34.02063500000004,
          "velocity": 0.7874015748031497,
          "duration": 0.15463925000000245
        },
        {
          "name": "D#2",
          "midi": 39,
          "time": 34.329913500000046,
          "velocity": 0.7874015748031497,
          "duration": 0.3092784999999978
        },
        {
          "name": "A#2",
          "midi": 46,
          "time": 34.639192000000044,
          "velocity": 0.7874015748031497,
          "duration": 0.3092784999999978
        },
        {
          "name": "A#2",
          "midi": 46,
          "time": 35.103109750000044,
          "velocity": 0.7874015748031497,
          "duration": 0.3092784999999978
        },
        {
          "name": "A#2",
          "midi": 46,
          "time": 35.567027500000044,
          "velocity": 0.7874015748031497,
          "duration": 0.3092784999999978
        },
        {
          "name": "A#2",
          "midi": 46,
          "time": 36.08249166666671,
          "velocity": 0.7874015748031497,
          "duration": 0.05154641666666748
        },
        {
          "name": "A#2",
          "midi": 46,
          "time": 36.18558450000005,
          "velocity": 0.7874015748031497,
          "duration": 0.15463925000000245
        },
        {
          "name": "A#2",
          "midi": 46,
          "time": 36.39177016666672,
          "velocity": 0.7874015748031497,
          "duration": 0.05154641666666748
        },
        {
          "name": "A#2",
          "midi": 46,
          "time": 36.49486300000005,
          "velocity": 0.7874015748031497,
          "duration": 0.15463925000000245
        },
        {
          "name": "A#2",
          "midi": 46,
          "time": 36.80414150000006,
          "velocity": 0.7874015748031497,
          "duration": 0.3092784999999978
        },
        {
          "name": "F2",
          "midi": 41,
          "time": 37.113420000000055,
          "velocity": 0.7874015748031497,
          "duration": 0.3092784999999978
        },
        {
          "name": "F2",
          "midi": 41,
          "time": 37.577337750000055,
          "velocity": 0.7874015748031497,
          "duration": 0.3092784999999978
        },
        {
          "name": "F2",
          "midi": 41,
          "time": 38.041255500000055,
          "velocity": 0.7874015748031497,
          "duration": 0.3092784999999978
        },
        {
          "name": "F2",
          "midi": 41,
          "time": 38.55671966666672,
          "velocity": 0.7874015748031497,
          "duration": 0.05154641666666748
        },
        {
          "name": "F2",
          "midi": 41,
          "time": 38.65981250000006,
          "velocity": 0.7874015748031497,
          "duration": 0.15463925000000245
        },
        {
          "name": "F2",
          "midi": 41,
          "time": 38.86599816666673,
          "velocity": 0.7874015748031497,
          "duration": 0.05154641666666748
        },
        {
          "name": "F2",
          "midi": 41,
          "time": 38.96909100000006,
          "velocity": 0.7874015748031497,
          "duration": 0.15463925000000245
        },
        {
          "name": "F2",
          "midi": 41,
          "time": 39.27836950000007,
          "velocity": 0.7874015748031497,
          "duration": 0.3092784999999978
        }
      ],
      "controlChanges": {
        "6": [
          {
            "number": 6,
            "time": 0,
            "value": 0.09448818897637795
          },
          {
            "number": 6,
            "time": 0,
            "value": 0.09448818897637795
          },
          {
            "number": 6,
            "time": 0,
            "value": 0.09448818897637795
          },
          {
            "number": 6,
            "time": 42.06187600000007,
            "value": 0.09448818897637795
          },
          {
            "number": 6,
            "time": 42.0683193020834,
            "value": 0.09448818897637795
          },
          {
            "number": 6,
            "time": 42.0683193020834,
            "value": 0.09448818897637795
          }
        ],
        "7": [
          {
            "number": 7,
            "time": 0,
            "value": 0.7874015748031497
          },
          {
            "number": 7,
            "time": 0,
            "value": 0.7874015748031497
          },
          {
            "number": 7,
            "time": 0,
            "value": 0.7874015748031497
          },
          {
            "number": 7,
            "time": 0,
            "value": 0.7874015748031497
          },
          {
            "number": 7,
            "time": 42.06187600000007,
            "value": 0.7874015748031497
          },
          {
            "number": 7,
            "time": 42.0683193020834,
            "value": 0.7874015748031497
          },
          {
            "number": 7,
            "time": 42.0683193020834,
            "value": 0.7874015748031497
          }
        ],
        "10": [
          {
            "number": 10,
            "time": 0,
            "value": 0.5039370078740157
          },
          {
            "number": 10,
            "time": 0,
            "value": 0.5039370078740157
          },
          {
            "number": 10,
            "time": 0,
            "value": 0.5039370078740157
          },
          {
            "number": 10,
            "time": 0,
            "value": 0.5039370078740157
          },
          {
            "number": 10,
            "time": 42.06187600000007,
            "value": 0.5039370078740157
          },
          {
            "number": 10,
            "time": 42.0683193020834,
            "value": 0.5039370078740157
          },
          {
            "number": 10,
            "time": 42.0683193020834,
            "value": 0.5039370078740157
          }
        ],
        "100": [
          {
            "number": 100,
            "time": 0,
            "value": 0
          },
          {
            "number": 100,
            "time": 0,
            "value": 0
          },
          {
            "number": 100,
            "time": 0,
            "value": 0
          },
          {
            "number": 100,
            "time": 42.06187600000007,
            "value": 0
          },
          {
            "number": 100,
            "time": 42.0683193020834,
            "value": 0
          },
          {
            "number": 100,
            "time": 42.0683193020834,
            "value": 0
          }
        ],
        "101": [
          {
            "number": 101,
            "time": 0,
            "value": 0
          },
          {
            "number": 101,
            "time": 0,
            "value": 0
          },
          {
            "number": 101,
            "time": 0,
            "value": 0
          },
          {
            "number": 101,
            "time": 42.06187600000007,
            "value": 0
          },
          {
            "number": 101,
            "time": 42.0683193020834,
            "value": 0
          },
          {
            "number": 101,
            "time": 42.0683193020834,
            "value": 0
          }
        ]
      },
      "id": 3,
      "name": "Bass",
      "instrumentNumber": 87,
      "instrument": "lead 8 (bass + lead)",
      "instrumentFamily": "synth lead",
      "channelNumber": 13,
      "isPercussion": false
    },
    {
      "startTime": 0,
      "duration": 40.051565749999995,
      "length": 95,
      "notes": [
        {
          "name": "C2",
          "midi": 36,
          "time": 0,
          "velocity": 0.7716535433070866,
          "duration": 0.3092785
        },
        {
          "name": "F#2",
          "midi": 42,
          "time": 0.618557,
          "velocity": 0.7716535433070866,
          "duration": 0.3092785
        },
        {
          "name": "C2",
          "midi": 36,
          "time": 0.618557,
          "velocity": 0.7716535433070866,
          "duration": 0.3092785
        },
        {
          "name": "C2",
          "midi": 36,
          "time": 1.237114,
          "velocity": 0.7716535433070866,
          "duration": 0.3092785
        },
        {
          "name": "C2",
          "midi": 36,
          "time": 1.855671,
          "velocity": 0.7716535433070866,
          "duration": 0.3092785
        },
        {
          "name": "F#2",
          "midi": 42,
          "time": 1.855671,
          "velocity": 0.7716535433070866,
          "duration": 0.3092785
        },
        {
          "name": "C2",
          "midi": 36,
          "time": 2.474228,
          "velocity": 0.7716535433070866,
          "duration": 0.3092785
        },
        {
          "name": "F#2",
          "midi": 42,
          "time": 3.092785,
          "velocity": 0.7716535433070866,
          "duration": 0.3092785
        },
        {
          "name": "C2",
          "midi": 36,
          "time": 3.092785,
          "velocity": 0.7716535433070866,
          "duration": 0.3092785
        },
        {
          "name": "C2",
          "midi": 36,
          "time": 3.711342,
          "velocity": 0.7716535433070866,
          "duration": 0.30927849999999957
        },
        {
          "name": "F#2",
          "midi": 42,
          "time": 4.329898999999999,
          "velocity": 0.7716535433070866,
          "duration": 0.30927849999999957
        },
        {
          "name": "C2",
          "midi": 36,
          "time": 4.329898999999999,
          "velocity": 0.7716535433070866,
          "duration": 0.30927849999999957
        },
        {
          "name": "C2",
          "midi": 36,
          "time": 4.948455999999998,
          "velocity": 0.7716535433070866,
          "duration": 0.30927849999999957
        },
        {
          "name": "C2",
          "midi": 36,
          "time": 5.5670129999999975,
          "velocity": 0.7716535433070866,
          "duration": 0.30927849999999957
        },
        {
          "name": "F#2",
          "midi": 42,
          "time": 5.5670129999999975,
          "velocity": 0.7716535433070866,
          "duration": 0.30927849999999957
        },
        {
          "name": "C2",
          "midi": 36,
          "time": 6.185569999999997,
          "velocity": 0.7716535433070866,
          "duration": 0.30927849999999957
        },
        {
          "name": "C2",
          "midi": 36,
          "time": 6.804126999999996,
          "velocity": 0.7716535433070866,
          "duration": 0.30927849999999957
        },
        {
          "name": "F#2",
          "midi": 42,
          "time": 6.804126999999996,
          "velocity": 0.7716535433070866,
          "duration": 0.30927849999999957
        },
        {
          "name": "C2",
          "midi": 36,
          "time": 7.422683999999995,
          "velocity": 0.7716535433070866,
          "duration": 0.30927849999999957
        },
        {
          "name": "F#2",
          "midi": 42,
          "time": 8.041240999999994,
          "velocity": 0.7716535433070866,
          "duration": 0.30927849999999957
        },
        {
          "name": "C2",
          "midi": 36,
          "time": 8.041240999999994,
          "velocity": 0.7716535433070866,
          "duration": 0.30927849999999957
        },
        {
          "name": "C2",
          "midi": 36,
          "time": 8.659797999999993,
          "velocity": 0.7716535433070866,
          "duration": 0.30927849999999957
        },
        {
          "name": "C2",
          "midi": 36,
          "time": 9.278354999999992,
          "velocity": 0.7716535433070866,
          "duration": 0.30927849999999957
        },
        {
          "name": "F#2",
          "midi": 42,
          "time": 9.278354999999992,
          "velocity": 0.7716535433070866,
          "duration": 0.30927849999999957
        },
        {
          "name": "C2",
          "midi": 36,
          "time": 9.896911999999991,
          "velocity": 0.7716535433070866,
          "duration": 0.30927849999999957
        },
        {
          "name": "F#2",
          "midi": 42,
          "time": 10.51546899999999,
          "velocity": 0.7716535433070866,
          "duration": 0.30927849999999957
        },
        {
          "name": "C2",
          "midi": 36,
          "time": 10.51546899999999,
          "velocity": 0.7716535433070866,
          "duration": 0.30927849999999957
        },
        {
          "name": "C2",
          "midi": 36,
          "time": 11.13402599999999,
          "velocity": 0.7716535433070866,
          "duration": 0.30927849999999957
        },
        {
          "name": "C2",
          "midi": 36,
          "time": 11.752582999999989,
          "velocity": 0.7716535433070866,
          "duration": 0.30927849999999957
        },
        {
          "name": "F#2",
          "midi": 42,
          "time": 11.752582999999989,
          "velocity": 0.7716535433070866,
          "duration": 0.30927849999999957
        },
        {
          "name": "C2",
          "midi": 36,
          "time": 12.371139999999988,
          "velocity": 0.7716535433070866,
          "duration": 0.30927849999999957
        },
        {
          "name": "C2",
          "midi": 36,
          "time": 12.989696999999987,
          "velocity": 0.7716535433070866,
          "duration": 0.30927849999999957
        },
        {
          "name": "F#2",
          "midi": 42,
          "time": 12.989696999999987,
          "velocity": 0.7716535433070866,
          "duration": 0.30927849999999957
        },
        {
          "name": "C2",
          "midi": 36,
          "time": 13.608253999999986,
          "velocity": 0.7716535433070866,
          "duration": 0.30927849999999957
        },
        {
          "name": "F#2",
          "midi": 42,
          "time": 14.226810999999985,
          "velocity": 0.7716535433070866,
          "duration": 0.30927849999999957
        },
        {
          "name": "C2",
          "midi": 36,
          "time": 14.226810999999985,
          "velocity": 0.7716535433070866,
          "duration": 0.30927849999999957
        },
        {
          "name": "C2",
          "midi": 36,
          "time": 14.845367999999985,
          "velocity": 0.7716535433070866,
          "duration": 0.30927849999999957
        },
        {
          "name": "F#2",
          "midi": 42,
          "time": 15.463924999999984,
          "velocity": 0.7716535433070866,
          "duration": 0.30927849999999957
        },
        {
          "name": "C2",
          "midi": 36,
          "time": 15.463924999999984,
          "velocity": 0.7716535433070866,
          "duration": 0.30927849999999957
        },
        {
          "name": "C2",
          "midi": 36,
          "time": 16.082481999999985,
          "velocity": 0.7716535433070866,
          "duration": 0.30927850000000134
        },
        {
          "name": "F#2",
          "midi": 42,
          "time": 16.701038999999987,
          "velocity": 0.7716535433070866,
          "duration": 0.30927850000000134
        },
        {
          "name": "C2",
          "midi": 36,
          "time": 16.701038999999987,
          "velocity": 0.7716535433070866,
          "duration": 0.30927850000000134
        },
        {
          "name": "C2",
          "midi": 36,
          "time": 17.31959599999999,
          "velocity": 0.7716535433070866,
          "duration": 0.30927850000000134
        },
        {
          "name": "F#2",
          "midi": 42,
          "time": 17.938152999999993,
          "velocity": 0.7716535433070866,
          "duration": 0.30927850000000134
        },
        {
          "name": "F#2",
          "midi": 42,
          "time": 19.175266999999995,
          "velocity": 0.7716535433070866,
          "duration": 0.30927850000000134
        },
        {
          "name": "C2",
          "midi": 36,
          "time": 19.793823999999997,
          "velocity": 0.7716535433070866,
          "duration": 0.30927850000000134
        },
        {
          "name": "C2",
          "midi": 36,
          "time": 20.412381,
          "velocity": 0.7716535433070866,
          "duration": 0.30927850000000134
        },
        {
          "name": "D#2",
          "midi": 39,
          "time": 20.412381,
          "velocity": 0.7716535433070866,
          "duration": 0.30927850000000134
        },
        {
          "name": "C2",
          "midi": 36,
          "time": 21.030938000000003,
          "velocity": 0.7716535433070866,
          "duration": 0.30927850000000134
        },
        {
          "name": "D#2",
          "midi": 39,
          "time": 21.649495000000005,
          "velocity": 0.7716535433070866,
          "duration": 0.30927850000000134
        },
        {
          "name": "C2",
          "midi": 36,
          "time": 21.649495000000005,
          "velocity": 0.7716535433070866,
          "duration": 0.30927850000000134
        },
        {
          "name": "C2",
          "midi": 36,
          "time": 22.268052000000008,
          "velocity": 0.7716535433070866,
          "duration": 0.30927850000000134
        },
        {
          "name": "D#2",
          "midi": 39,
          "time": 22.88660900000001,
          "velocity": 0.7716535433070866,
          "duration": 0.30927850000000134
        },
        {
          "name": "C2",
          "midi": 36,
          "time": 22.88660900000001,
          "velocity": 0.7716535433070866,
          "duration": 0.30927850000000134
        },
        {
          "name": "C2",
          "midi": 36,
          "time": 23.505166000000013,
          "velocity": 0.7716535433070866,
          "duration": 0.30927850000000134
        },
        {
          "name": "D#2",
          "midi": 39,
          "time": 24.123723000000016,
          "velocity": 0.7716535433070866,
          "duration": 0.30927850000000134
        },
        {
          "name": "C2",
          "midi": 36,
          "time": 24.123723000000016,
          "velocity": 0.7716535433070866,
          "duration": 0.30927850000000134
        },
        {
          "name": "C2",
          "midi": 36,
          "time": 24.74228000000002,
          "velocity": 0.7716535433070866,
          "duration": 0.30927850000000134
        },
        {
          "name": "C2",
          "midi": 36,
          "time": 25.36083700000002,
          "velocity": 0.7716535433070866,
          "duration": 0.30927850000000134
        },
        {
          "name": "D#2",
          "midi": 39,
          "time": 25.36083700000002,
          "velocity": 0.7716535433070866,
          "duration": 0.30927850000000134
        },
        {
          "name": "C2",
          "midi": 36,
          "time": 25.979394000000024,
          "velocity": 0.7716535433070866,
          "duration": 0.30927850000000134
        },
        {
          "name": "C2",
          "midi": 36,
          "time": 26.597951000000027,
          "velocity": 0.7716535433070866,
          "duration": 0.30927850000000134
        },
        {
          "name": "D#2",
          "midi": 39,
          "time": 26.597951000000027,
          "velocity": 0.7716535433070866,
          "duration": 0.30927850000000134
        },
        {
          "name": "C2",
          "midi": 36,
          "time": 27.21650800000003,
          "velocity": 0.7716535433070866,
          "duration": 0.30927850000000134
        },
        {
          "name": "C2",
          "midi": 36,
          "time": 27.835065000000032,
          "velocity": 0.7716535433070866,
          "duration": 0.30927850000000134
        },
        {
          "name": "D#2",
          "midi": 39,
          "time": 27.835065000000032,
          "velocity": 0.7716535433070866,
          "duration": 0.30927850000000134
        },
        {
          "name": "C2",
          "midi": 36,
          "time": 28.453622000000035,
          "velocity": 0.7716535433070866,
          "duration": 0.30927850000000134
        },
        {
          "name": "D#2",
          "midi": 39,
          "time": 29.072179000000038,
          "velocity": 0.7716535433070866,
          "duration": 0.30927850000000134
        },
        {
          "name": "C2",
          "midi": 36,
          "time": 29.072179000000038,
          "velocity": 0.7716535433070866,
          "duration": 0.30927850000000134
        },
        {
          "name": "C2",
          "midi": 36,
          "time": 29.69073600000004,
          "velocity": 0.7716535433070866,
          "duration": 0.30927850000000134
        },
        {
          "name": "C2",
          "midi": 36,
          "time": 30.309293000000043,
          "velocity": 0.7716535433070866,
          "duration": 0.30927850000000134
        },
        {
          "name": "D#2",
          "midi": 39,
          "time": 30.309293000000043,
          "velocity": 0.7716535433070866,
          "duration": 0.30927850000000134
        },
        {
          "name": "C2",
          "midi": 36,
          "time": 30.927850000000046,
          "velocity": 0.7716535433070866,
          "duration": 0.30927850000000134
        },
        {
          "name": "C2",
          "midi": 36,
          "time": 31.54640700000005,
          "velocity": 0.7716535433070866,
          "duration": 0.30927850000000134
        },
        {
          "name": "D#2",
          "midi": 39,
          "time": 31.54640700000005,
          "velocity": 0.7716535433070866,
          "duration": 0.30927850000000134
        },
        {
          "name": "C2",
          "midi": 36,
          "time": 32.16496400000005,
          "velocity": 0.7716535433070866,
          "duration": 0.3092784999999978
        },
        {
          "name": "C2",
          "midi": 36,
          "time": 32.78352100000004,
          "velocity": 0.7716535433070866,
          "duration": 0.3092784999999978
        },
        {
          "name": "D#2",
          "midi": 39,
          "time": 32.78352100000004,
          "velocity": 0.7716535433070866,
          "duration": 0.3092784999999978
        },
        {
          "name": "C2",
          "midi": 36,
          "time": 33.40207800000004,
          "velocity": 0.7716535433070866,
          "duration": 0.3092784999999978
        },
        {
          "name": "C2",
          "midi": 36,
          "time": 34.020635000000034,
          "velocity": 0.7716535433070866,
          "duration": 0.3092784999999978
        },
        {
          "name": "D#2",
          "midi": 39,
          "time": 34.020635000000034,
          "velocity": 0.7716535433070866,
          "duration": 0.3092784999999978
        },
        {
          "name": "C2",
          "midi": 36,
          "time": 34.63919200000003,
          "velocity": 0.7716535433070866,
          "duration": 0.3092784999999978
        },
        {
          "name": "C2",
          "midi": 36,
          "time": 35.257749000000025,
          "velocity": 0.7716535433070866,
          "duration": 0.3092784999999978
        },
        {
          "name": "D#2",
          "midi": 39,
          "time": 35.257749000000025,
          "velocity": 0.7716535433070866,
          "duration": 0.3092784999999978
        },
        {
          "name": "C2",
          "midi": 36,
          "time": 35.87630600000002,
          "velocity": 0.7716535433070866,
          "duration": 0.3092784999999978
        },
        {
          "name": "C2",
          "midi": 36,
          "time": 36.49486300000002,
          "velocity": 0.7716535433070866,
          "duration": 0.3092784999999978
        },
        {
          "name": "D#2",
          "midi": 39,
          "time": 36.49486300000002,
          "velocity": 0.7716535433070866,
          "duration": 0.3092784999999978
        },
        {
          "name": "C2",
          "midi": 36,
          "time": 37.11342000000001,
          "velocity": 0.7716535433070866,
          "duration": 0.3092784999999978
        },
        {
          "name": "D#2",
          "midi": 39,
          "time": 37.73197700000001,
          "velocity": 0.7716535433070866,
          "duration": 0.3092784999999978
        },
        {
          "name": "C2",
          "midi": 36,
          "time": 37.73197700000001,
          "velocity": 0.7716535433070866,
          "duration": 0.3092784999999978
        },
        {
          "name": "C2",
          "midi": 36,
          "time": 38.350534,
          "velocity": 0.7716535433070866,
          "duration": 0.3092784999999978
        },
        {
          "name": "C2",
          "midi": 36,
          "time": 38.969091,
          "velocity": 0.7716535433070866,
          "duration": 0.3092784999999978
        },
        {
          "name": "D#2",
          "midi": 39,
          "time": 38.969091,
          "velocity": 0.7716535433070866,
          "duration": 0.3092784999999978
        },
        {
          "name": "C2",
          "midi": 36,
          "time": 39.587647999999994,
          "velocity": 0.7716535433070866,
          "duration": 0.46391775000000024
        },
        {
          "name": "C#3",
          "midi": 49,
          "time": 39.587647999999994,
          "velocity": 0.7716535433070866,
          "duration": 0.46391775000000024
        }
      ],
      "controlChanges": {
        "6": [
          {
            "number": 6,
            "time": 0,
            "value": 0.09448818897637795
          },
          {
            "number": 6,
            "time": 0,
            "value": 0.09448818897637795
          },
          {
            "number": 6,
            "time": 0,
            "value": 0.09448818897637795
          },
          {
            "number": 6,
            "time": 42.061876,
            "value": 0.09448818897637795
          },
          {
            "number": 6,
            "time": 42.06831930208333,
            "value": 0.09448818897637795
          },
          {
            "number": 6,
            "time": 42.06831930208333,
            "value": 0.09448818897637795
          }
        ],
        "7": [
          {
            "number": 7,
            "time": 0,
            "value": 0.7874015748031497
          },
          {
            "number": 7,
            "time": 0,
            "value": 0.7874015748031497
          },
          {
            "number": 7,
            "time": 0,
            "value": 0.7874015748031497
          },
          {
            "number": 7,
            "time": 0,
            "value": 0.7874015748031497
          },
          {
            "number": 7,
            "time": 42.061876,
            "value": 0.7874015748031497
          },
          {
            "number": 7,
            "time": 42.06831930208333,
            "value": 0.7874015748031497
          },
          {
            "number": 7,
            "time": 42.06831930208333,
            "value": 0.7874015748031497
          }
        ],
        "10": [
          {
            "number": 10,
            "time": 0,
            "value": 0.5039370078740157
          },
          {
            "number": 10,
            "time": 0,
            "value": 0.5039370078740157
          },
          {
            "number": 10,
            "time": 0,
            "value": 0.5039370078740157
          },
          {
            "number": 10,
            "time": 0,
            "value": 0.5039370078740157
          },
          {
            "number": 10,
            "time": 42.061876,
            "value": 0.5039370078740157
          },
          {
            "number": 10,
            "time": 42.06831930208333,
            "value": 0.5039370078740157
          },
          {
            "number": 10,
            "time": 42.06831930208333,
            "value": 0.5039370078740157
          }
        ],
        "100": [
          {
            "number": 100,
            "time": 0,
            "value": 0
          },
          {
            "number": 100,
            "time": 0,
            "value": 0
          },
          {
            "number": 100,
            "time": 0,
            "value": 0
          },
          {
            "number": 100,
            "time": 42.061876,
            "value": 0
          },
          {
            "number": 100,
            "time": 42.06831930208333,
            "value": 0
          },
          {
            "number": 100,
            "time": 42.06831930208333,
            "value": 0
          }
        ],
        "101": [
          {
            "number": 101,
            "time": 0,
            "value": 0
          },
          {
            "number": 101,
            "time": 0,
            "value": 0
          },
          {
            "number": 101,
            "time": 0,
            "value": 0
          },
          {
            "number": 101,
            "time": 42.061876,
            "value": 0
          },
          {
            "number": 101,
            "time": 42.06831930208333,
            "value": 0
          },
          {
            "number": 101,
            "time": 42.06831930208333,
            "value": 0
          }
        ]
      },
      "id": 4,
      "name": "Drums",
      "instrumentNumber": 0,
      "instrument": "standard kit",
      "instrumentFamily": "drums",
      "channelNumber": 9,
      "isPercussion": true
    },
    {
      "startTime": 0,
      "duration": 0,
      "length": 0,
      "notes": [],
      "controlChanges": {
        "6": [
          {
            "number": 6,
            "time": 0,
            "value": 0.09448818897637795
          },
          {
            "number": 6,
            "time": 0,
            "value": 0.09448818897637795
          },
          {
            "number": 6,
            "time": 0,
            "value": 0.09448818897637795
          },
          {
            "number": 6,
            "time": 42.061876,
            "value": 0.09448818897637795
          },
          {
            "number": 6,
            "time": 42.06831930208333,
            "value": 0.09448818897637795
          },
          {
            "number": 6,
            "time": 42.06831930208333,
            "value": 0.09448818897637795
          }
        ],
        "7": [
          {
            "number": 7,
            "time": 0,
            "value": 0.7874015748031497
          },
          {
            "number": 7,
            "time": 0,
            "value": 0.7874015748031497
          },
          {
            "number": 7,
            "time": 0,
            "value": 0.7874015748031497
          },
          {
            "number": 7,
            "time": 0,
            "value": 0.7874015748031497
          },
          {
            "number": 7,
            "time": 42.061876,
            "value": 0.7874015748031497
          },
          {
            "number": 7,
            "time": 42.06831930208333,
            "value": 0.7874015748031497
          },
          {
            "number": 7,
            "time": 42.06831930208333,
            "value": 0.7874015748031497
          }
        ],
        "10": [
          {
            "number": 10,
            "time": 0,
            "value": 0.5039370078740157
          },
          {
            "number": 10,
            "time": 0,
            "value": 0.5039370078740157
          },
          {
            "number": 10,
            "time": 0,
            "value": 0.5039370078740157
          },
          {
            "number": 10,
            "time": 0,
            "value": 0.5039370078740157
          },
          {
            "number": 10,
            "time": 42.061876,
            "value": 0.5039370078740157
          },
          {
            "number": 10,
            "time": 42.06831930208333,
            "value": 0.5039370078740157
          },
          {
            "number": 10,
            "time": 42.06831930208333,
            "value": 0.5039370078740157
          }
        ],
        "100": [
          {
            "number": 100,
            "time": 0,
            "value": 0
          },
          {
            "number": 100,
            "time": 0,
            "value": 0
          },
          {
            "number": 100,
            "time": 0,
            "value": 0
          },
          {
            "number": 100,
            "time": 42.061876,
            "value": 0
          },
          {
            "number": 100,
            "time": 42.06831930208333,
            "value": 0
          },
          {
            "number": 100,
            "time": 42.06831930208333,
            "value": 0
          }
        ],
        "101": [
          {
            "number": 101,
            "time": 0,
            "value": 0
          },
          {
            "number": 101,
            "time": 0,
            "value": 0
          },
          {
            "number": 101,
            "time": 0,
            "value": 0
          },
          {
            "number": 101,
            "time": 42.061876,
            "value": 0
          },
          {
            "number": 101,
            "time": 42.06831930208333,
            "value": 0
          },
          {
            "number": 101,
            "time": 42.06831930208333,
            "value": 0
          }
        ]
      },
      "id": 5,
      "name": "Alan Walker - Alone",
      "instrumentNumber": 0,
      "instrument": "acoustic grand piano",
      "instrumentFamily": "piano",
      "channelNumber": 0,
      "isPercussion": false
    },
    {
      "startTime": 0,
      "duration": 0,
      "length": 0,
      "notes": [],
      "controlChanges": {
        "6": [
          {
            "number": 6,
            "time": 0,
            "value": 0.09448818897637795
          },
          {
            "number": 6,
            "time": 0,
            "value": 0.09448818897637795
          },
          {
            "number": 6,
            "time": 0,
            "value": 0.09448818897637795
          },
          {
            "number": 6,
            "time": 42.061876,
            "value": 0.09448818897637795
          },
          {
            "number": 6,
            "time": 42.06831930208333,
            "value": 0.09448818897637795
          },
          {
            "number": 6,
            "time": 42.06831930208333,
            "value": 0.09448818897637795
          }
        ],
        "7": [
          {
            "number": 7,
            "time": 0,
            "value": 0.7874015748031497
          },
          {
            "number": 7,
            "time": 0,
            "value": 0.7874015748031497
          },
          {
            "number": 7,
            "time": 0,
            "value": 0.7874015748031497
          },
          {
            "number": 7,
            "time": 0,
            "value": 0.7874015748031497
          },
          {
            "number": 7,
            "time": 42.061876,
            "value": 0.7874015748031497
          },
          {
            "number": 7,
            "time": 42.06831930208333,
            "value": 0.7874015748031497
          },
          {
            "number": 7,
            "time": 42.06831930208333,
            "value": 0.7874015748031497
          }
        ],
        "10": [
          {
            "number": 10,
            "time": 0,
            "value": 0.5039370078740157
          },
          {
            "number": 10,
            "time": 0,
            "value": 0.5039370078740157
          },
          {
            "number": 10,
            "time": 0,
            "value": 0.5039370078740157
          },
          {
            "number": 10,
            "time": 0,
            "value": 0.5039370078740157
          },
          {
            "number": 10,
            "time": 42.061876,
            "value": 0.5039370078740157
          },
          {
            "number": 10,
            "time": 42.06831930208333,
            "value": 0.5039370078740157
          },
          {
            "number": 10,
            "time": 42.06831930208333,
            "value": 0.5039370078740157
          }
        ],
        "100": [
          {
            "number": 100,
            "time": 0,
            "value": 0
          },
          {
            "number": 100,
            "time": 0,
            "value": 0
          },
          {
            "number": 100,
            "time": 0,
            "value": 0
          },
          {
            "number": 100,
            "time": 42.061876,
            "value": 0
          },
          {
            "number": 100,
            "time": 42.06831930208333,
            "value": 0
          },
          {
            "number": 100,
            "time": 42.06831930208333,
            "value": 0
          }
        ],
        "101": [
          {
            "number": 101,
            "time": 0,
            "value": 0
          },
          {
            "number": 101,
            "time": 0,
            "value": 0
          },
          {
            "number": 101,
            "time": 0,
            "value": 0
          },
          {
            "number": 101,
            "time": 42.061876,
            "value": 0
          },
          {
            "number": 101,
            "time": 42.06831930208333,
            "value": 0
          },
          {
            "number": 101,
            "time": 42.06831930208333,
            "value": 0
          }
        ]
      },
      "id": 6,
      "name": "Carlo Prato",
      "instrumentNumber": 0,
      "instrument": "acoustic grand piano",
      "instrumentFamily": "piano",
      "channelNumber": 0,
      "isPercussion": false
    },
    {
      "startTime": 0,
      "duration": 0,
      "length": 0,
      "notes": [],
      "controlChanges": {
        "6": [
          {
            "number": 6,
            "time": 0,
            "value": 0.09448818897637795
          },
          {
            "number": 6,
            "time": 0,
            "value": 0.09448818897637795
          },
          {
            "number": 6,
            "time": 0,
            "value": 0.09448818897637795
          },
          {
            "number": 6,
            "time": 42.061876,
            "value": 0.09448818897637795
          },
          {
            "number": 6,
            "time": 42.06831930208333,
            "value": 0.09448818897637795
          },
          {
            "number": 6,
            "time": 42.06831930208333,
            "value": 0.09448818897637795
          }
        ],
        "7": [
          {
            "number": 7,
            "time": 0,
            "value": 0.7874015748031497
          },
          {
            "number": 7,
            "time": 0,
            "value": 0.7874015748031497
          },
          {
            "number": 7,
            "time": 0,
            "value": 0.7874015748031497
          },
          {
            "number": 7,
            "time": 0,
            "value": 0.7874015748031497
          },
          {
            "number": 7,
            "time": 42.061876,
            "value": 0.7874015748031497
          },
          {
            "number": 7,
            "time": 42.06831930208333,
            "value": 0.7874015748031497
          },
          {
            "number": 7,
            "time": 42.06831930208333,
            "value": 0.7874015748031497
          }
        ],
        "10": [
          {
            "number": 10,
            "time": 0,
            "value": 0.5039370078740157
          },
          {
            "number": 10,
            "time": 0,
            "value": 0.5039370078740157
          },
          {
            "number": 10,
            "time": 0,
            "value": 0.5039370078740157
          },
          {
            "number": 10,
            "time": 0,
            "value": 0.5039370078740157
          },
          {
            "number": 10,
            "time": 42.061876,
            "value": 0.5039370078740157
          },
          {
            "number": 10,
            "time": 42.06831930208333,
            "value": 0.5039370078740157
          },
          {
            "number": 10,
            "time": 42.06831930208333,
            "value": 0.5039370078740157
          }
        ],
        "100": [
          {
            "number": 100,
            "time": 0,
            "value": 0
          },
          {
            "number": 100,
            "time": 0,
            "value": 0
          },
          {
            "number": 100,
            "time": 0,
            "value": 0
          },
          {
            "number": 100,
            "time": 42.061876,
            "value": 0
          },
          {
            "number": 100,
            "time": 42.06831930208333,
            "value": 0
          },
          {
            "number": 100,
            "time": 42.06831930208333,
            "value": 0
          }
        ],
        "101": [
          {
            "number": 101,
            "time": 0,
            "value": 0
          },
          {
            "number": 101,
            "time": 0,
            "value": 0
          },
          {
            "number": 101,
            "time": 0,
            "value": 0
          },
          {
            "number": 101,
            "time": 42.061876,
            "value": 0
          },
          {
            "number": 101,
            "time": 42.06831930208333,
            "value": 0
          },
          {
            "number": 101,
            "time": 42.06831930208333,
            "value": 0
          }
        ]
      },
      "id": 7,
      "name": "cprato.com"
    }
  ]
}